<?xml version="1.0" encoding="UTF-8" standalone="no"?>
<!-- Created with Inkscape (http://www.inkscape.org/) -->

<svg
   xmlns:dc="http://purl.org/dc/elements/1.1/"
   xmlns:cc="http://creativecommons.org/ns#"
   xmlns:rdf="http://www.w3.org/1999/02/22-rdf-syntax-ns#"
   xmlns:svg="http://www.w3.org/2000/svg"
   xmlns="http://www.w3.org/2000/svg"
   xmlns:sodipodi="http://sodipodi.sourceforge.net/DTD/sodipodi-0.dtd"
   xmlns:inkscape="http://www.inkscape.org/namespaces/inkscape"
   width="116.16288mm"
   height="87.230415mm"
   viewBox="0 0 411.60076 309.08415"
   id="svg2"
   version="1.1"
   inkscape:version="0.91 r13725"
   sodipodi:docname="patum.svg">
  <defs
     id="defs4" />
  <sodipodi:namedview
     id="base"
     pagecolor="#ffffff"
     bordercolor="#666666"
     borderopacity="1.0"
     inkscape:pageopacity="0.0"
     inkscape:pageshadow="2"
     inkscape:zoom="0.49497475"
     inkscape:cx="-12.286537"
     inkscape:cy="11.884295"
     inkscape:document-units="px"
     inkscape:current-layer="layer1"
     showgrid="false"
     inkscape:window-width="1280"
     inkscape:window-height="744"
     inkscape:window-x="0"
     inkscape:window-y="24"
     inkscape:window-maximized="1"
     inkscape:object-paths="true"
     fit-margin-top="0"
     fit-margin-left="0"
     fit-margin-right="0"
     fit-margin-bottom="0" />
  <metadata
     id="metadata7">
    <rdf:RDF>
      <cc:Work
         rdf:about="">
        <dc:format>image/svg+xml</dc:format>
        <dc:type
           rdf:resource="http://purl.org/dc/dcmitype/StillImage" />
        <dc:title></dc:title>
      </cc:Work>
    </rdf:RDF>
  </metadata>
  <g
     inkscape:label="Capa 1"
     inkscape:groupmode="layer"
     id="layer1"
     transform="translate(-176.40308,-212.32737)">
    <path
       style="fill:#a8a8a8;fill-opacity:0.5362319;fill-rule:evenodd;stroke:none;stroke-width:1px;stroke-linecap:round;stroke-linejoin:round;stroke-opacity:1"
       d="m 505.29432,243.26501 -232.41872,1.94903 m 0,0 c -21.27728,3.45507 -45.06755,17.66761 -60.83167,34.93879 -7.91412,8.67073 -12.53114,20.46996 -14.68696,32.00979 -6.76408,36.20737 -3.42776,75.25076 2.34809,111.64685 5.33617,33.62553 34.96811,58.11315 83.37066,59.00579 l 1.30714,38.59627 c 90.30076,-39.14449 91.05777,-39.15528 91.05777,-39.15528 1.79729,-1.84925 118.77424,1.74549 140.7914,-2.76339 69.7398,-17.20942 75.40116,-101.76555 68.14661,-159.21641 -5.15145,-36.61525 -31.86062,-67.36312 -79.08432,-77.01144 z"
       id="path4390-3"
       inkscape:connector-curvature="0"
       sodipodi:nodetypes="cccassccccccc" />
    <path
       style="fill:#ff5c5c;fill-opacity:1;fill-rule:evenodd;stroke:none;stroke-width:1px;stroke-linecap:round;stroke-linejoin:round;stroke-opacity:1"
       d="m 504.38937,213.75398 -243.31702,-1.42661 m 0,0 c -22.32387,3.29929 -47.4387,17.82162 -64.19765,35.66537 -8.41357,8.95816 -13.42251,21.24034 -15.85127,33.28767 -7.62047,37.79974 -4.7105,78.71879 0.79257,116.90313 5.08416,35.27764 35.7366,61.35243 86.38942,63.0088 l 0.79257,40.42074 c 95.10762,-39.62817 95.90019,-39.62817 95.90019,-39.62817 1.90893,-1.90893 124.30277,3.59876 147.41683,-0.79257 73.25793,-16.97398 80.44529,-105.40001 73.70842,-165.6458 -4.84622,-38.40444 -32.34582,-70.98865 -81.63406,-81.79256 z"
       id="path4390"
       inkscape:connector-curvature="0"
       sodipodi:nodetypes="cccassccccccc" />
    <path
       inkscape:connector-curvature="0"
       id="path4185"
       style="font-style:normal;font-variant:normal;font-weight:500;font-stretch:normal;font-size:medium;line-height:125%;font-family:'HVD Bodedo';-inkscape-font-specification:'HVD Bodedo Medium';letter-spacing:0px;word-spacing:0px;fill:#333537;fill-opacity:1;stroke:none;stroke-width:1px;stroke-linecap:butt;stroke-linejoin:miter;stroke-opacity:1"
       d="m 233.63359,414.57664 q -0.18,0 -1.98,-0.18 -1.8,0 -4.14,-0.18 -2.16,-0.18 -4.14,-0.36 -1.98,-0.18 -2.7,-0.36 -0.36,0 -1.62,-0.54 -1.26,-0.54 -1.62,-0.54 -0.36,0 -0.72,-0.54 -0.18,-0.36 -0.36,-0.54 l 0.54,-9.18 q 0,-0.36 0.54,-0.36 0.72,-0.18 1.08,-0.18 0.36,0 1.8,0.18 1.62,0 3.24,0.18 1.8,0 3.24,0.18 1.44,0 1.98,0 0.9,0 1.26,0 0.54,-0.18 1.44,-0.54 0,-1.26 0,-4.32 0.18,-3.24 0.18,-6.66 0.18,-3.6 0.18,-6.66 0.18,-3.24 0.18,-4.5 l 0,-6.12 q 0,-0.36 0.18,-1.62 0.36,-1.26 0.36,-1.62 0,-2.52 -0.18,-6.12 -0.18,-3.6 0.72,-6.48 l 0,-9.36 q 0,-6.66 -0.54,-13.5 -0.54,-7.02 -0.54,-13.86 l 0,-23.58 q 0,-0.36 -0.18,-1.26 0,-0.9 -0.18,-1.8 0,-1.08 -0.18,-1.98 0,-0.9 0,-1.08 0,-1.62 0,-3.78 0.18,-2.16 0.36,-4.5 0.18,-2.34 0.36,-4.32 0.18,-2.16 0.36,-3.6 l 0,-0.54 -0.54,-0.54 -8.1,0 q -0.54,0 -1.44,0 -0.72,-0.18 -1.62,-0.36 -0.9,-0.18 -1.8,-0.18 l 0,-8.46 q 0.18,-0.18 0.36,-0.54 0.36,-0.54 0.72,-0.54 l 1.44,-0.36 q 1.44,-0.36 1.8,-0.36 10.44,-1.26 22.14,-1.26 11.88,0 22.14,-0.36 0.36,0 2.34,0 1.98,-0.18 4.14,-0.18 2.34,-0.18 4.32,-0.18 1.98,-0.18 2.34,-0.18 0.36,0 1.8,0.36 1.62,0.18 2.16,0.18 0.9,0 3.42,0.18 2.52,0 5.4,0.18 3.06,0 5.94,0.18 2.88,0 4.32,0 l 9.9,0 q 2.88,0 6.12,1.98 3.42,1.98 5.94,3.6 l 1.08,0.54 1.62,0.54 q 0.36,0 1.62,1.44 1.44,1.26 1.8,1.26 0.36,0 1.62,0.9 1.26,0.72 1.62,0.72 l 0.54,0.54 q 1.62,3.06 4.5,7.56 3.06,4.5 4.32,7.92 0.36,1.62 0.36,4.14 0.18,2.34 0.18,4.14 l 0,3.78 q 0,4.5 -0.18,9.9 0,5.22 -0.9,9.36 -0.36,1.26 -1.8,2.52 -1.26,1.08 -2.16,2.34 -0.18,0.18 -0.72,1.08 -0.36,0.72 -0.9,1.62 -0.54,0.9 -1.08,1.8 -0.36,0.72 -0.54,0.9 -1.26,2.16 -2.34,2.88 -1.08,0.72 -3.06,1.62 -0.36,0.18 -1.62,0.9 -1.26,0.54 -2.88,1.26 -1.44,0.72 -2.7,1.44 -1.26,0.54 -1.62,0.72 -0.18,0.18 -1.08,0.54 -0.9,0.36 -1.98,0.9 -1.08,0.36 -1.98,0.72 -0.9,0.36 -1.08,0.72 -1.26,0.9 -2.88,2.16 -1.44,1.08 -3.06,1.08 -3.78,-0.18 -5.94,-0.54 -1.98,-0.36 -3.78,-0.72 -1.8,-0.36 -3.96,-0.36 -1.98,0 -5.76,0.54 -0.54,0 -1.44,0 -0.9,0 -1.8,0.18 l -2.16,0.36 -2.34,1.62 q -0.36,0 -2.16,0.36 -1.8,0.18 -2.16,0.18 -0.36,0.9 -0.54,1.62 0,0.72 0,1.62 0,1.62 0.18,3.42 0.36,1.62 0.36,3.24 0,5.22 -1.08,10.44 -1.08,5.04 -1.08,10.44 0,1.98 0.36,4.68 0.36,2.7 0.72,4.68 l 0,11.52 q 0,0.18 0.72,0.54 0.9,0.36 1.98,0.9 1.08,0.36 1.98,0.72 1.08,0.18 1.26,0.18 0.54,0 1.98,0.18 1.62,0 3.24,0.18 1.62,0 3.06,0.18 1.44,0 1.62,0 l 2.16,1.08 3.24,0 q 0.36,0 1.08,0.72 0.72,0.54 0.72,0.9 l 0,8.1 q 0,0.36 -0.54,1.08 -0.36,0.72 -0.72,1.08 -0.54,0 -3.06,0 -2.34,0.18 -5.04,0.18 -2.7,0.18 -5.22,0.18 -2.34,0.18 -3.06,0.18 -0.36,0 -1.62,-0.36 -1.26,-0.18 -1.62,-0.18 l -46.44,0 z m 46.08,-81.36 q 0.72,0 2.34,0.36 1.8,0.18 2.34,0.18 l 1.62,1.08 0.36,0 0.36,0 q 2.34,-0.36 4.5,-1.08 2.34,-0.72 4.32,-1.08 1.44,-0.36 2.52,-2.34 1.08,-2.16 2.52,-3.42 0.54,-0.36 1.26,-0.54 0.72,-0.18 1.08,-1.08 0.54,-1.62 0.54,-2.88 0.18,-1.44 0.18,-3.24 0.36,-3.42 0.54,-6.84 0.18,-3.6 0.18,-7.2 l 0,-3.78 -0.36,-2.16 q 0,-0.36 0.18,-1.98 0.18,-1.8 0.18,-2.16 l 0,-0.54 0,-0.54 q 0,-0.36 -0.72,-1.26 -0.72,-1.08 -0.72,-1.44 -1.44,-3.6 -1.8,-5.58 -0.36,-2.16 -1.08,-3.24 -0.54,-1.08 -1.98,-1.44 -1.26,-0.54 -4.5,-0.9 l -2.88,0 q -0.9,0 -2.52,-0.54 -1.62,-0.54 -2.16,-0.54 l -1.26,1.08 -0.72,0.54 -0.36,0 q -0.36,0 -1.26,-0.18 -0.72,-0.36 -1.08,-0.36 l -0.36,0 -0.36,0 q -0.36,0 -0.9,0.36 -0.36,0.18 -0.72,0.18 0,0.36 -0.18,1.62 -0.18,1.26 -0.18,1.62 l 0,1.26 q 0,0.9 0,1.44 0,0.54 0.36,1.44 l 0,29.88 q -0.36,2.7 -0.36,5.76 0,2.88 0,5.4 l -0.36,1.26 q 0,0.36 0.54,1.62 0.54,1.26 0.9,1.26 z m -39.96,-1.44 0.54,0.54 0,-0.54 -0.54,-0.54 0,0.54 z m 18,0 q -0.36,0 -0.36,0.54 0,0.54 0.36,0.54 0.36,0 0.36,-0.54 0,-0.54 -0.36,-0.54 z m -16.38,-0.54 q -0.36,0 -0.36,0.54 0,0.54 0.36,0.54 0.36,0 0.36,-0.54 0,-0.54 -0.36,-0.54 z m 12.06,-10.98 q -0.36,0 -0.36,0.54 0,0.54 0.36,0.54 0.36,0 0.36,-0.54 0,-0.54 -0.36,-0.54 z m -19.26,-46.44 q 1.08,0 1.08,-0.54 l -1.08,0 0,0.54 z m 26.82,49.5 1.08,0 0,-1.08 -1.08,1.08 z m 3.42,-1.8 q -0.36,0 -0.36,0.72 0,0.54 0.36,0.54 0.36,0 0.36,-0.54 0,-0.72 -0.36,-0.72 z m -14.58,-5.58 q -0.36,0 -0.36,0.72 0,0.54 0.36,0.54 0.36,0 0.36,-0.54 0,-0.72 -0.36,-0.72 z m 0,-3.24 q -0.36,0 -0.36,0.54 0,0.54 0.36,0.54 0.36,0 0.36,-0.54 0,-0.54 -0.36,-0.54 z m 10.08,0 q -0.36,0 -0.36,0.54 0,0.54 0.36,0.54 0.36,0 0.36,-0.54 0,-0.54 -0.36,-0.54 z m 3.42,-0.72 0.54,0 q 0.36,0 0.72,0 0.54,-0.18 0.9,-1.08 l -2.16,1.08 z m -16.92,-2.7 q -0.36,0 -0.36,0.54 0,0.54 0.36,0.54 0.36,0 0.36,-0.54 0,-0.54 -0.36,-0.54 z m 7.92,0.54 q 0.36,-0.36 -1.26,-0.36 -1.44,0 -1.08,0.36 0.36,0.36 1.08,0.36 0.9,0 1.26,-0.36 z m 3.24,-3.42 q 0.18,0.36 0.36,0.9 0.36,0.72 0.9,1.44 0.36,0.18 0.54,0.36 0.36,0.18 0.72,0.36 0.54,0.18 0.9,0.36 0.36,0 1.26,-0.9 1.08,-0.9 1.08,-1.26 l 0,1.08 1.08,0 1.08,-5.58 -0.54,0 q -0.9,0 -1.26,0.72 -0.36,0.54 -0.36,1.44 -0.54,-0.36 -1.08,-0.72 -0.54,-0.54 -0.18,-1.44 l -4.5,3.24 0,0 z m 18,2.88 q -0.36,0 -0.36,0.54 0,0.54 0.36,0.54 0.36,0 0.36,-0.54 0,-0.54 -0.36,-0.54 z m -9,-2.34 q -0.36,0 -0.36,0.72 0,0.54 0.36,0.54 0.36,0 0.36,-0.54 0,-0.72 -0.36,-0.72 z m -15.66,-2.16 q -0.36,0 -0.36,0.54 0,0.54 0.36,0.54 0.36,0 0.36,-0.54 0,-0.54 -0.36,-0.54 z m 16.74,0.54 1.26,-1.08 -2.34,0 1.08,1.08 z m -21.24,-2.16 q -0.36,0 -0.36,0.54 0,0.54 0.36,0.54 0.36,0 0.36,-0.54 0,-0.54 -0.36,-0.54 z m -2.16,-1.8 q -0.54,0 -0.54,0.72 0,0.54 0.54,0.54 0.36,0 0.36,-0.54 0,-0.72 -0.36,-0.72 z m 11.16,0 q -0.36,0 -0.36,0.72 0,0.54 0.36,0.54 0.36,0 0.36,-0.54 0,-0.72 -0.36,-0.72 z m -5.58,-0.54 1.08,0 0,-2.16 -1.08,2.16 z m 5.58,-3.42 q -0.36,-0.36 -0.9,0.36 -0.54,0.54 -0.18,0.9 0.36,0.36 0.9,-0.18 0.54,-0.54 0.18,-1.08 z m -5.58,0 1.08,-1.08 -1.08,0 0,1.08 z m -2.34,-2.7 q -0.36,0 -0.36,0.54 0,0.54 0.36,0.54 0.36,0 0.36,-0.54 0,-0.54 -0.36,-0.54 z m 6.84,0 q -0.36,0 -0.36,0.54 0,0.54 0.36,0.54 0.36,0 0.36,-0.54 0,-0.54 -0.36,-0.54 z m 3.24,-1.08 q -0.36,0 -0.36,0.54 0,0.54 0.36,0.54 0.36,0 0.36,-0.54 0,-0.54 -0.36,-0.54 z m -5.58,-1.26 q -0.36,0 -0.36,0.72 0,0.54 0.36,0.54 0.36,0 0.36,-0.54 0,-0.72 -0.36,-0.72 z m 7.92,0 q -0.36,0 -0.36,0.72 0,0.54 0.36,0.54 0.36,0 0.36,-0.54 0,-0.72 -0.36,-0.72 z m -12.42,-1.08 q -0.36,0 -0.36,0.54 0,0.54 0.36,0.54 0.36,0 0.36,-0.54 0,-0.54 -0.36,-0.54 z m 9,-2.16 q -0.36,0 -0.36,0.54 0,0.54 0.36,0.54 0.36,0 0.36,-0.54 0,-0.54 -0.36,-0.54 z m 2.34,0 q -0.54,0 -0.54,0.54 0,0.54 0.54,0.54 0.36,0 0.36,-0.54 0,-0.54 -0.36,-0.54 z m -5.76,-1.08 q -0.36,0 -0.36,0.54 0,0.54 0.36,0.54 0.54,0 0.54,-0.54 0,-0.54 -0.54,-0.54 z m 13.5,0.54 1.08,0 0,-2.34 -1.08,0 0,2.34 z m -10.08,-3.96 q -0.36,0 -0.36,0.54 0,0.54 0.36,0.54 0.36,0 0.36,-0.54 0,-0.54 -0.36,-0.54 z m 6.84,-0.54 q -0.54,0 -0.54,0.54 0,0.54 0.54,0.54 0.36,0 0.36,-0.54 0,-0.54 -0.36,-0.54 z m -4.5,-0.54 q -0.54,0 -0.54,0.54 0,0.54 0.54,0.54 0.36,0 0.36,-0.54 0,-0.54 -0.36,-0.54 z m 6.66,0 q -0.36,0 -0.36,0.54 0,0.54 0.36,0.54 0.36,0 0.36,-0.54 0,-0.54 -0.36,-0.54 z m 4.5,-1.8 q -0.9,0 -1.62,0.54 -0.72,0.36 -0.72,1.26 l 0,0.54 2.34,-2.34 0,0 z m -23.58,0.54 q -0.36,0 -0.36,0.72 0,0.54 0.36,0.54 0.36,0 0.36,-0.54 0,-0.72 -0.36,-0.72 z m 2.34,0 q -0.54,0 -0.54,0.72 0,0.54 0.54,0.54 0.36,0 0.36,-0.54 0,-0.72 -0.36,-0.72 z m 17.82,-1.62 q -0.36,0 -0.36,0.54 0,0.54 0.36,0.54 0.36,0 0.36,-0.54 0,-0.54 -0.36,-0.54 z m -18.36,-9.54 q -0.36,0 -0.36,0.54 0,0.54 0.36,0.54 0.36,0 0.36,-0.54 0,-0.54 -0.36,-0.54 z m 3.42,5.4 q -0.54,0 -0.54,0.54 0,0.54 0.54,0.54 0.36,0 0.36,-0.54 0,-0.54 -0.36,-0.54 z m 10.44,3.6 q -0.36,0 -0.36,0.54 0,0.54 0.36,0.54 0.36,0 0.36,-0.54 0,-0.54 -0.36,-0.54 z m 10.08,-6.66 q -0.36,0 -0.36,0.54 0,0.54 0.36,0.54 0.36,0 0.36,-0.54 0,-0.54 -0.36,-0.54 z m 38.52,20.88 q -0.54,0 -0.54,0.72 0,0.54 0.54,0.54 0.54,0 0.54,-0.54 0,-0.72 -0.54,-0.72 z m 2.7,0 q -0.54,0 -0.54,0.72 0,0.54 0.54,0.54 0.36,0 0.36,-0.54 0,-0.72 -0.36,-0.72 z m -5.4,-1.26 q -0.54,0 -0.54,0.72 0,0.54 0.54,0.54 0.36,0 0.36,-0.54 0,-0.72 -0.36,-0.72 z m 22.86,0 q -0.54,0 -0.54,0.72 0,0.54 0.54,0.54 0.54,0 0.54,-0.54 0,-0.72 -0.54,-0.72 z m -17.46,-4.86 q -0.54,-0.36 -0.54,1.44 0,1.62 0.54,1.26 1.08,-1.44 0,-2.7 z m 4.14,2.7 1.26,0 0,-1.26 -1.26,0 0,1.26 z m -9.54,-2.7 q -0.54,0 -0.54,0.72 0,0.72 0.54,0.72 0.36,0 0.36,-0.72 0,-0.72 -0.36,-0.72 z m 2.7,0.72 q -0.54,0 -0.54,0.72 0,0.54 0.54,0.54 0.54,0 0.54,-0.54 0,-0.72 -0.54,-0.72 z m 6.84,-2.88 q -0.54,0 -0.54,0.9 0,0.72 0.54,0.72 0.36,0 0.36,-0.72 0,-0.9 -0.36,-0.9 z m -4.86,-1.8 q -0.36,0 -0.9,0.18 -0.54,0.18 -1.08,1.08 l 3.96,0 q -0.54,-0.9 -1.08,-1.08 -0.36,-0.18 -0.9,-0.18 z m -5.94,-0.72 q -0.54,0 -0.54,0.72 0,0.54 0.54,0.54 0.36,0 0.36,-0.54 0,-0.72 -0.36,-0.72 z m 9.18,-1.98 q -0.36,0 -0.36,0.72 0,0.54 0.36,0.54 0.72,0 0.72,-0.54 0,-0.72 -0.72,-0.72 z m 2.88,-0.9 q -0.54,0 -0.54,0.9 0,0.72 0.54,0.72 0.36,0 0.36,-0.72 0,-0.9 -0.36,-0.9 z m -5.4,-0.54 q 0,-0.54 -0.72,-0.54 -0.54,0 -0.54,0.54 0,0.36 0.54,0.36 0.72,0 0.72,-0.36 z m -10.8,-3.24 q -0.54,0 -0.54,0.72 0,0.54 0.54,0.54 0.36,0 0.36,-0.54 0,-0.72 -0.36,-0.72 z m 12.06,-1.26 q -0.54,0 -0.54,0.72 0,0.54 0.54,0.54 0.54,0 0.54,-0.54 0,-0.72 -0.54,-0.72 z m -1.26,-1.62 q -0.54,0 -0.54,0.9 0,0.72 0.54,0.72 0.36,0 0.36,-0.72 0,-0.9 -0.36,-0.9 z" />
    <path
       inkscape:connector-curvature="0"
       id="path4193"
       style="font-style:normal;font-variant:normal;font-weight:500;font-stretch:normal;font-size:medium;line-height:125%;font-family:'HVD Bodedo';-inkscape-font-specification:'HVD Bodedo Medium';letter-spacing:0px;word-spacing:0px;fill:#333537;fill-opacity:1;stroke:none;stroke-width:1px;stroke-linecap:butt;stroke-linejoin:miter;stroke-opacity:1"
       d="m 382.7323,368.30614 q -0.0531,0.29921 -0.64399,0.94379 -0.59093,0.64459 -1.25341,1.39404 -0.74329,0.75714 -1.34348,1.30455 -0.68098,0.55511 -0.84259,0.57049 -0.40403,0.0385 -0.70196,-0.52149 -0.38798,-0.64944 -0.43423,-1.1353 -0.29114,-1.34504 -0.41141,-2.60829 -0.21032,-1.35273 -0.33985,-2.71316 -0.20786,-0.47047 -0.70195,-0.52149 -0.50333,-0.14819 -0.98816,-0.10203 -0.56564,0.0539 -1.05047,0.10002 -0.56563,0.0539 -0.8173,-0.0202 l -0.51259,-0.24536 -0.48483,0.0462 q -0.88885,0.0846 -1.91156,0.47616 -1.03197,0.29436 -1.6852,1.14098 l -0.8864,0.96688 q -0.15236,0.11256 -0.22391,0.21743 -0.0716,0.10486 -0.22391,0.21742 -0.15236,0.11256 -0.22391,0.21743 -0.16161,0.0154 -0.72725,0.0692 -0.57489,-0.0433 -0.7365,-0.0279 -1.11277,0.30205 -2.08922,1.17945 -1.06651,0.78792 -1.89061,1.55275 l -0.64398,0.9438 q -0.16161,0.0154 -0.68099,0.55511 -0.60018,0.54741 -0.76179,0.56279 -1.04801,0.98227 -1.02704,2.05886 -0.0598,1.0843 -0.52372,2.20705 -0.004,1.66733 0.10669,2.83341 0.0302,1.17377 0.15973,2.53419 0.27755,2.9152 0.69821,5.62066 0.42065,2.70546 1.10222,5.58219 0.20787,0.47048 1.04368,0.68506 0.82655,0.11742 1.24908,0.2733 1.21453,0.76685 2.41982,1.43653 1.12448,0.67737 2.33901,1.44423 1.05293,0.78224 2.26501,0.66684 1.13127,-0.10771 2.3273,0.4648 0.16161,-0.0154 0.70195,0.52149 0.45954,0.54457 0.62115,0.52919 0.87281,0.60328 1.85172,0.60813 0.96966,-0.0923 1.77092,0.61583 l 0.78276,0.5138 q 0.16161,-0.0154 0.54713,-0.2482 0.38552,-0.23281 0.36702,-0.42716 -0.24054,-2.5265 -0.12086,-4.69508 0.11969,-2.16858 0.0685,-4.41895 l -0.0833,-0.87456 q -0.0278,-0.29152 0.21466,-0.3146 0.15236,-0.11256 0.40403,-0.0385 0.16161,-0.0154 0.39477,-0.13564 0.15236,-0.11256 0.11535,-0.50125 -0.0463,-0.48587 -0.42499,-1.03814 -0.45953,-0.54457 -0.5613,-1.61347 l 1.93932,-0.18464 q 0.45708,-0.33768 0.7618,-0.5628 0.30471,-0.22512 0.61868,-0.35306 0.30472,-0.22512 0.48483,-0.0462 0.42253,0.15588 1.00667,0.29637 0.57489,0.0433 0.6489,0.82071 l 0.16653,1.74911 q 0.24979,2.62368 0.34723,5.35991 0.0882,2.63906 0.18561,5.3753 0.12952,1.36042 0.30284,2.32446 0.17333,0.96404 -0.12893,2.07141 l 0.39781,4.17844 q 0.24055,2.5265 0.50638,4.46227 0.18503,1.94346 0.57793,4.3574 0.0463,0.48587 -0.31151,1.0102 -0.36702,0.42716 -0.59093,0.64459 -0.22391,0.21742 -0.68099,0.5551 -0.45707,0.33768 -0.83334,0.66766 -0.45708,0.33768 -0.7618,0.5628 -0.38552,0.23281 -0.46632,0.24051 l -0.96967,0.0923 q -0.0833,-0.87456 0.36456,-1.30941 0.43858,-0.53203 0.35531,-1.40659 l -0.0277,-0.29152 q -0.0463,-0.48586 -0.12027,-1.26325 -0.15482,-0.76969 -0.30964,-1.53938 -0.17332,-0.96404 -0.26583,-1.93577 -0.19183,-1.15838 -0.75067,-1.88961 -0.55884,-0.73122 -1.27005,-1.34989 -0.7112,-0.61867 -1.4847,-1.03529 -0.77351,-0.41663 -1.47546,-0.93812 -0.0462,-0.48587 -0.30717,-0.65714 -0.35098,-0.26074 -0.77351,-0.41662 -3.14706,-1.3673 -6.6704,-2.4046 -3.53259,-1.13449 -6.55505,-2.90586 -0.16161,0.0154 -0.79201,-0.61097 -0.63964,-0.72353 -0.80125,-0.70815 l -0.51259,-0.24536 q -0.0808,0.008 -0.42253,-0.15588 -0.34172,-0.16357 -0.76425,-0.31945 -0.43178,-0.25305 -0.7735,-0.41663 -0.34173,-0.16357 -0.42253,-0.15588 -0.93512,-0.40124 -1.89799,-1.094 -1.05292,-0.78224 -1.98804,-1.18348 -0.25166,-0.0741 -0.76425,-0.31945 -0.59339,-0.23767 -1.10597,-0.48303 -0.59339,-0.23767 -1.01592,-0.39355 -0.43178,-0.25305 -0.52184,-0.34253 -1.18678,-0.47533 -3.64115,-1.41831 -2.45436,-0.94297 -5.51137,-2.22078 -3.05701,-1.27782 -6.28488,-2.63742 -3.22787,-1.3596 -5.97092,-2.76536 -2.74304,-1.40576 -4.56946,-2.60463 -1.90724,-1.19117 -2.15211,-2.05034 l -0.21466,0.3146 q -0.72725,0.0692 -1.58156,-0.3397 -0.86356,-0.5061 -1.31384,-0.9535 l -0.0278,-0.29152 q -0.20787,-0.47048 -0.52183,-0.34253 -0.32323,0.0308 -0.74575,-0.12511 -0.18012,-0.17896 -1.05293,-0.78224 -0.87281,-0.60328 -1.05292,-0.78224 -0.6927,-0.42432 -1.29535,-0.75916 -0.60264,-0.33484 -0.7044,-1.40375 l -0.0278,-0.29151 0.755,0.22228 0.24242,-0.0231 q 0.16161,-0.0154 0.70195,0.52149 0.54034,0.53688 0.70195,0.52149 l 0.24241,-0.0231 0.18691,-0.60612 q -0.0185,-0.19434 -0.48729,-0.83609 -0.46879,-0.64174 -0.87281,-0.60328 l -0.13878,-1.45759 q 0.38553,-0.23282 1.11956,-1.08713 0.73404,-0.85432 0.89565,-0.86971 l 0.24242,-0.0231 0.54034,0.53688 q -0.0185,-0.19434 0.11535,-0.50125 0.1246,-0.40408 0.28621,-0.41947 1.06652,-0.78791 2.25084,-1.19483 1.18432,-0.40692 2.26933,-1.00049 l 0.9049,-0.77253 q 1.30893,-0.81099 2.61786,-1.62199 1.29967,-0.90817 2.54629,-1.51713 0.16161,-0.0154 0.7988,-0.1741 0.54714,-0.2482 0.70875,-0.26359 l 0.21466,-0.3146 q 0.51937,-0.53972 0.93265,-0.48101 0.40403,-0.0385 0.95116,-0.28666 0.40403,-0.0385 1.07576,-0.69075 0.59093,-0.64458 0.83335,-0.66766 5.8476,-2.81197 11.49658,-5.99725 5.63973,-3.28246 11.67669,-5.8183 0.14311,-0.20973 0.46633,-0.2405 0.31397,-0.12795 0.70874,-0.26359 0.39477,-0.13564 0.78955,-0.27128 0.16161,-0.0154 0.85185,-0.47331 0.60943,-0.45024 1.37123,-1.01304 0.76179,-0.5628 1.45203,-1.02073 0.60943,-0.45024 0.77104,-0.46562 1.35519,-0.32513 2.72641,-1.33817 1.28118,-1.10252 2.6524,-2.11555 1.28117,-1.10252 2.67091,-1.92121 1.38973,-0.81869 2.79117,-0.65795 0.0716,-0.10487 0.0598,-1.08429 -0.10177,-1.06891 -0.14123,-2.33985 -0.12027,-1.26325 -0.21279,-2.23498 -0.10176,-1.06891 -0.11102,-1.16608 0.10365,-1.48068 0.2375,-1.78758 0.12461,-0.40408 0.46633,-0.24051 0.33247,0.0664 1.16828,0.28099 0.74575,0.12511 2.18173,-0.20772 0.97213,0.78993 1.30952,2.62084 0.33739,1.8309 0.43915,2.8998 l 0.53659,5.63605 1.05468,11.07773 q 0.074,0.77739 0.16899,2.63137 0.16653,1.74912 0.27075,3.70027 0.18504,1.94346 0.26151,3.6031 0.15727,1.65194 0.21278,2.23498 0.0185,0.19435 -0.0506,1.18147 0.0117,0.97942 0.0302,1.17377 z m -23.8593,23.45122 q 0.0185,0.19435 0.26092,0.17127 0.24241,-0.0231 0.22391,-0.21743 -0.0185,-0.19435 -0.26092,-0.17127 -0.24242,0.0231 -0.22391,0.21743 z m -5.09131,-2.94716 q -0.0463,-0.48587 0.004,-1.66733 -0.0302,-1.17377 -0.0765,-1.65964 -0.0185,-0.19434 0.18691,-0.60611 0.20541,-0.41178 0.18691,-0.60612 l -0.64761,-6.80212 q -0.48483,0.0462 -1.10352,0.39922 -0.69949,0.36076 -1.38973,0.81869 -0.69024,0.45793 -1.29968,0.90817 -0.69024,0.45793 -1.15656,0.69844 -0.16161,0.0154 -0.69024,0.45793 -0.53788,0.34537 -0.69949,0.36076 -0.16162,0.0154 -0.68099,0.5551 -0.60019,0.54742 -0.74329,0.75715 -0.16161,0.0154 -0.755,-0.22228 -0.59339,-0.23767 -0.99742,-0.1992 0.11102,1.16607 -0.004,1.66733 -0.20541,0.41177 -0.35777,0.52433 -0.24242,0.0231 -0.40403,0.0385 -0.24241,0.0231 -0.19615,0.50895 0.0555,0.58304 1.02763,1.37297 0.89131,0.79763 2.18665,1.55679 1.21454,0.76685 2.41057,1.33936 1.18678,0.47533 1.75242,0.42148 l 0.24241,-0.0231 1.18432,-0.40692 0.24242,-0.0231 q 0.40402,-0.0385 0.66494,0.1328 0.25167,0.0741 0.6557,0.0356 l 0.45707,-0.33768 0,0 z m -15.84822,-5.45297 q 0.0185,0.19435 0.26092,0.17127 0.24241,-0.0231 0.22391,-0.21743 -0.0185,-0.19434 -0.26092,-0.17126 -0.24241,0.0231 -0.22391,0.21742 z m -12.01713,-0.32669 q 0.24242,-0.0231 0.718,-0.16641 0.38552,-0.23281 0.54713,-0.2482 l -0.0277,-0.29152 q -0.0648,-0.68021 -0.80126,-0.70815 -0.7365,-0.0279 -1.30214,0.0259 -0.16161,0.0154 -0.39477,0.13564 -0.32322,0.0308 -0.30472,0.22512 l 0.0278,0.29152 q 0.18011,0.17896 0.78275,0.5138 0.59339,0.23767 0.755,0.22228 z m -3.63248,-4.75297 q 0.0185,0.19435 0.26092,0.17127 0.24242,-0.0231 0.22391,-0.21743 -0.0185,-0.19434 -0.26091,-0.17126 -0.24242,0.0231 -0.22392,0.21742 z m -3.41536,-4.18531 q 0.0185,0.19434 0.26092,0.17126 0.24242,-0.0231 0.22391,-0.21742 -0.0185,-0.19435 -0.26092,-0.17127 -0.24241,0.0231 -0.22391,0.21743 z m 0.0759,-1.7722 q -0.16161,0.0154 -0.14311,0.20974 0.009,0.0972 0.17086,0.0818 0.16161,-0.0154 0.15236,-0.11256 -0.0185,-0.19434 -0.18011,-0.17896 z m -0.32568,-0.85148 q 0.0185,0.19435 0.26092,0.17127 0.24241,-0.0231 0.22391,-0.21743 -0.0185,-0.19434 -0.26092,-0.17126 -0.24241,0.0231 -0.22391,0.21742 z m 0.21829,7.43132 q 0.0185,0.19435 0.26092,0.17127 0.24241,-0.0231 0.22391,-0.21743 -0.0185,-0.19435 -0.26092,-0.17127 -0.24241,0.0231 -0.22391,0.21743 z m -1.59327,-1.31912 q 0.0185,0.19435 0.26092,0.17127 0.24242,-0.0231 0.22391,-0.21743 -0.0185,-0.19434 -0.26092,-0.17126 -0.24241,0.0231 -0.22391,0.21742 z m -0.35343,-1.143 q 0.0185,0.19435 0.26092,0.17127 0.24241,-0.0231 0.22391,-0.21743 -0.0185,-0.19434 -0.26092,-0.17126 -0.24241,0.0231 -0.22391,0.21742 z m -0.55697,-3.2808 q 0.0185,0.19434 0.18011,0.17896 0.0808,-0.008 0.0623,-0.20204 -0.0185,-0.19435 -0.0993,-0.18666 -0.16161,0.0154 -0.14311,0.20974 z m -0.45708,0.33768 q 0.0185,0.19434 0.26092,0.17126 0.24242,-0.0231 0.22391,-0.21742 -0.0185,-0.19435 -0.26091,-0.17127 -0.24242,0.0231 -0.22392,0.21743 z m -0.59585,-1.11992 q -0.0185,-0.19435 0.22392,-0.21743 0.24241,-0.0231 0.26092,0.17127 0.0185,0.19434 -0.22392,0.21742 -0.24241,0.0231 -0.26092,-0.17126 z m -1.8536,1.94144 q 0.24242,-0.0231 0.78276,0.5138 l -0.72725,0.0692 -0.0555,-0.58304 z m 41.73128,-10.44467 q 0.0278,0.29152 0.43178,0.25306 0.32322,-0.0308 0.29547,-0.3223 -0.0278,-0.29152 -0.35098,-0.26074 -0.40402,0.0385 -0.37627,0.32998 z m -0.85372,3.0229 q 0.0278,0.29152 0.35097,0.26075 0.24242,-0.0231 0.21466,-0.3146 -0.0185,-0.19435 -0.26092,-0.17127 -0.32322,0.0308 -0.30471,0.22512 z m -0.69516,-1.30657 q 0.0278,0.29152 0.35097,0.26075 0.24242,-0.0231 0.21466,-0.3146 -0.0277,-0.29152 -0.27017,-0.26844 -0.32322,0.0308 -0.29546,0.32229 z m -0.3621,2.19166 q 0.0278,0.29152 0.35097,0.26075 0.24242,-0.0231 0.21466,-0.3146 -0.0277,-0.29152 -0.27017,-0.26844 -0.32322,0.0308 -0.29546,0.32229 z m -1.76343,-10.81415 q 0.0278,0.29152 0.43179,0.25305 0.32322,-0.0308 0.29546,-0.32229 -0.0277,-0.29152 -0.35097,-0.26074 -0.40403,0.0385 -0.37628,0.32998 z m -1.13127,0.10771 q 0.0278,0.29152 0.35098,0.26074 0.24241,-0.0231 0.21466,-0.3146 -0.0278,-0.29152 -0.27017,-0.26844 -0.32322,0.0308 -0.29547,0.3223 z m -0.47078,14.75291 q 0.0278,0.29152 0.35098,0.26074 0.24241,-0.0231 0.21466,-0.31459 -0.0278,-0.29152 -0.27017,-0.26844 -0.32322,0.0308 -0.29547,0.32229 z m -1.32297,-13.89576 q 0.0278,0.29152 0.35097,0.26075 0.24242,-0.0231 0.21466,-0.3146 -0.0185,-0.19435 -0.26092,-0.17127 -0.32322,0.0308 -0.30471,0.22512 z m 0.267,8.79943 q 0.0278,0.29152 0.35098,0.26075 0.24241,-0.0231 0.21466,-0.3146 -0.0185,-0.19434 -0.26092,-0.17126 -0.32322,0.0308 -0.30472,0.22511 z m -1.12073,-5.77653 q 0.0278,0.29152 0.35098,0.26075 0.24241,-0.0231 0.21466,-0.3146 -0.0185,-0.19435 -0.26092,-0.17127 -0.32322,0.0308 -0.30472,0.22512 z m -0.60077,-2.88442 q -0.29546,0.32229 0.14557,0.67252 0.36023,0.35792 0.48483,-0.0462 0.22391,-0.21743 -0.0463,-0.48587 -0.36022,-0.35792 -0.58414,-0.14049 z m -0.30413,3.65695 q 0.037,0.38869 0.36023,0.35792 0.32322,-0.0308 0.28621,-0.41947 -0.0185,-0.19434 -0.34172,-0.16357 -0.32322,0.0308 -0.30472,0.22512 z m 0.27755,2.91519 -0.0648,-0.68021 -0.64644,0.0616 0.7112,0.61866 z m -0.73029,-4.24484 q 0.0277,0.29152 0.35097,0.26075 0.24242,-0.0231 0.21467,-0.3146 -0.0278,-0.29152 -0.27017,-0.26844 -0.32323,0.0308 -0.29547,0.32229 z m -0.14803,-1.55477 q 0.037,0.38869 0.36023,0.35792 0.24242,-0.0231 0.20541,-0.41177 -0.0185,-0.19435 -0.26092,-0.17127 -0.32322,0.0308 -0.30472,0.22512 z m 0.0727,6.7588 q 0.0185,0.19434 0.34172,0.16357 0.24242,-0.0231 0.22391,-0.21742 -0.037,-0.3887 -0.27942,-0.36562 -0.32322,0.0308 -0.28621,0.41947 z m -1.204,-6.6511 q 0.037,0.3887 0.36023,0.35792 0.24241,-0.0231 0.20541,-0.41177 -0.0185,-0.19434 -0.26092,-0.17126 -0.32322,0.0308 -0.30472,0.22511 z m 0.67654,13.95731 q 0.0277,0.29152 0.35097,0.26074 0.32322,-0.0308 0.29547,-0.32229 -0.0185,-0.19435 -0.34173,-0.16357 -0.32322,0.0308 -0.30471,0.22512 z m -0.29664,-6.54138 -0.7112,-0.61866 0.0648,0.68021 0.64644,-0.0616 z m -0.53601,-2.2042 q 0.0278,0.29152 0.35098,0.26074 0.32322,-0.0308 0.29547,-0.32229 -0.0185,-0.19435 -0.34173,-0.16357 -0.32322,0.0308 -0.30472,0.22512 z m -1.13677,-5.08863 q 0.037,0.38869 0.36023,0.35792 0.32322,-0.0308 0.28621,-0.41947 -0.0185,-0.19435 -0.34172,-0.16357 -0.32322,0.0308 -0.30472,0.22512 z m -1.31396,11.89157 q 0.0278,0.29152 0.35097,0.26074 0.32322,-0.0308 0.29547,-0.32229 -0.0185,-0.19434 -0.34173,-0.16357 -0.32322,0.0308 -0.30471,0.22512 z m -0.29664,-6.54137 -0.0648,-0.68022 -0.64644,0.0615 0.7112,0.61867 z m -1.10164,-2.15036 q 0.037,0.38869 0.36023,0.35792 0.24241,-0.0231 0.2054,-0.41177 -0.0185,-0.19435 -0.26091,-0.17127 -0.32322,0.0308 -0.30472,0.22512 z m -0.67607,2.31961 -0.0648,-0.68022 q -0.14803,-1.55477 -1.68332,-1.40859 l -0.32322,0.0308 2.0713,2.05804 z m -0.60077,-2.88442 q 0.0278,0.29151 0.35098,0.26074 0.32322,-0.0308 0.29546,-0.32229 -0.0185,-0.19435 -0.34172,-0.16357 -0.32322,0.0308 -0.30472,0.22512 z m -0.30413,3.65695 q 0.0277,0.29152 0.35097,0.26074 0.32322,-0.0308 0.29547,-0.32229 -0.0185,-0.19435 -0.34172,-0.16357 -0.32322,0.0308 -0.30472,0.22512 z m -0.0457,2.94596 q -0.16161,0.0154 -0.1246,0.40408 0.037,0.38869 0.19862,0.37331 0.24241,-0.0231 0.20541,-0.41177 -0.037,-0.3887 -0.27943,-0.36562 z m -0.98324,1.66248 q -0.21466,0.3146 0.14556,0.67252 0.35098,0.26074 0.48484,-0.0462 0.22391,-0.21743 -0.0555,-0.58304 -0.36023,-0.35792 -0.57489,-0.0433 z m -0.0457,2.94596 q 0.0277,0.29152 0.35097,0.26075 0.32322,-0.0308 0.29547,-0.32229 -0.0278,-0.29152 -0.35098,-0.26075 -0.32322,0.0308 -0.29546,0.32229 z m -0.89741,-9.42579 q 0.0185,0.19435 0.34173,0.16358 0.32322,-0.0308 0.30471,-0.22512 -0.0278,-0.29152 -0.35097,-0.26075 -0.32322,0.0308 -0.29547,0.32229 z m -1.11768,-1.46245 -0.56564,0.0538 0.0648,0.68022 0.50088,-0.73407 z m -0.48308,10.34166 q 0.0277,0.29152 0.35097,0.26074 0.32322,-0.0308 0.29547,-0.32229 -0.0277,-0.29152 -0.35098,-0.26075 -0.32322,0.0308 -0.29546,0.3223 z m -0.78826,-5.71014 q -0.24241,0.0231 -0.20541,0.41177 0.0278,0.29152 0.27017,0.26844 0.16161,-0.0154 0.13386,-0.3069 -0.037,-0.38869 -0.19862,-0.37331 z" />
    <path
       inkscape:connector-curvature="0"
       id="path4189"
       style="font-style:normal;font-variant:normal;font-weight:500;font-stretch:normal;font-size:medium;line-height:125%;font-family:'HVD Bodedo';-inkscape-font-specification:'HVD Bodedo Medium';letter-spacing:0px;word-spacing:0px;fill:#333537;fill-opacity:1;stroke:none;stroke-width:1px;stroke-linecap:butt;stroke-linejoin:miter;stroke-opacity:1"
       d="m 549.61673,418.36173 q 0.001,0.79891 -0.32912,1.75805 -0.33052,0.79935 -1.1593,1.12004 l -4.1462,0.006 -3.48282,0.005 q -0.82924,0.001 -1.82457,-0.15729 -1.16117,-0.1582 -1.16281,-1.27667 l -0.0223,-15.17917 q -4.7e-4,-0.31956 -0.83018,-0.63799 l -0.66386,-0.31866 -11.11184,0.0151 q -2.81942,0.004 -5.63955,-0.47167 -2.98597,-0.47527 -6.13709,-0.47098 -5.96937,0.80704 -12.27137,0.9754 -6.30224,0.009 -12.43863,0.017 l -1.99018,0.003 q -1.82433,0.002 -5.80446,0.16769 -3.98036,0.005 -8.29218,0.17107 -4.31206,0.006 -8.12633,0.17086 -3.81452,0.005 -5.1413,0.007 -5.30715,0.007 -10.28166,0.65313 -5.1406,0.48635 -10.44728,0.81314 l -7.62902,0.0104 q -0.3317,4.5e-4 -1.65802,0.32182 -1.49216,0.32159 -2.3207,0.80207 -0.49731,0.16046 -0.82784,0.95981 -0.33075,0.63958 -0.4952,1.59849 -0.16467,0.79913 -0.1635,1.59803 10e-4,0.7989 0.002,1.11847 l 0.004,2.39671 0.49825,0.47866 q 0.003,1.91737 -0.49309,3.03651 -0.66199,0.95959 -2.48632,0.96208 l -1.49263,0.002 q -0.82925,10e-4 -2.48796,-0.15639 -1.82457,-0.1573 -3.64914,-0.31459 -1.82456,-0.1573 -3.48328,-0.31482 -1.82457,-0.15729 -2.65381,-0.15616 -0.82971,-0.31844 -0.6655,-1.43713 0.16397,-1.27847 0.1628,-2.07737 l -0.004,-2.39672 q 0.31927,-8.46883 0.97093,-16.45877 0.48559,-8.1495 0.47316,-16.61788 -0.003,-1.75759 -0.17124,-3.67473 -0.33451,-1.91692 -0.33709,-3.67451 -0.003,-2.23693 0.16022,-3.83496 -0.003,-1.75759 0.32583,-3.99497 1.6552,-2.23919 4.47322,-3.20172 2.81801,-0.96253 5.13825,-2.08415 4.97217,-2.24371 9.9441,-4.6472 4.97193,-2.40349 9.77896,-4.16763 0.33169,-4.5e-4 2.15532,-0.48228 1.65755,-0.64138 2.48632,-0.96207 2.98363,-1.12254 6.13287,-2.40508 2.98316,-1.44209 5.96679,-2.56462 l 1.32632,-0.32137 q 0.49731,-0.16046 0.99485,-0.16114 0.3317,-4.5e-4 0.6634,-9e-4 0.33169,-4.5e-4 1.65801,-0.32182 1.16047,-0.32114 2.48655,-0.80229 1.32585,-0.64093 2.48585,-1.28164 0.99392,-0.80026 0.99298,-1.43938 -0.002,-1.11847 -0.9979,-1.91602 -0.9965,-0.95732 -2.32422,-1.59464 -1.32773,-0.63732 -2.65522,-1.11485 -1.49334,-0.47731 -2.1572,-0.79597 -0.16608,-0.15955 -1.16164,-0.47776 -0.9958,-0.47799 -1.99159,-0.95597 -1.16164,-0.47776 -2.1572,-0.79597 -0.99579,-0.47799 -1.16188,-0.63754 -3.15323,-1.43374 -5.64377,-3.34772 -2.49077,-2.07376 -5.644,-3.50749 -5.31137,-2.86883 -10.78788,-5.25808 -5.64236,-2.38903 -10.95396,-5.41764 -0.16609,-0.15955 -0.9958,-0.47798 -0.82994,-0.47822 -1.65989,-0.95643 -0.99579,-0.47799 -1.8255,-0.79642 -0.82995,-0.47821 -0.99603,-0.63777 l -1.99159,-0.95597 -0.49825,-0.47866 -0.009,-5.91189 q -0.0103,-7.03036 0.30871,-15.65897 0.3188,-8.7884 0.64018,-15.8192 0.32958,-1.43848 0.99227,-1.91873 0.49661,-0.6398 1.98878,-0.96139 l -7.1e-4,-0.47935 -2.98949,-2.87198 6.46809,-0.009 2.65146,-1.44165 q 0.001,0.95869 0.99791,1.91602 0.82877,-0.32069 1.32467,-1.43984 0.33006,-1.11891 1.1593,-1.12004 l 0.49848,0.63844 q 4.7e-4,0.31956 0.33358,1.2778 0.16702,0.79867 0.16749,1.11824 l 0.0136,9.26728 0.49825,0.47867 q 2.98527,-0.004 6.6344,0.31052 3.48328,0.31482 6.46902,0.63031 0.3317,-4.5e-4 1.65895,0.3173 1.16118,0.1582 1.49287,0.15775 l 1.49334,0.47731 5.97054,-0.008 q 0.33217,0.31911 0.9958,0.47798 0.66339,-9e-4 1.16094,-0.002 2.98527,-0.004 5.80445,-0.16768 2.65311,-0.32318 5.80423,-0.32747 10.94599,-0.0149 21.72754,0.92909 10.6157,0.94422 21.72754,0.92908 6.46809,-0.009 13.59933,-0.1783 7.13101,-0.32928 13.43325,-0.33786 1.98994,-0.1625 2.8152,-2.8799 0.65941,-2.71718 1.15226,-5.91347 0.32677,-3.35585 0.65472,-5.91279 0.32771,-2.71673 1.48865,-2.71831 l 0.99509,-10e-4 q 0.16585,-2.3e-4 0.66339,-9.1e-4 0.49755,-6.8e-4 0.82948,0.15865 l 0.99556,0.31821 q 1.1614,0.31798 2.82036,0.63528 1.65895,0.3173 1.99299,1.91466 0.005,3.51518 0.17523,6.39101 0.16936,2.39648 0.3385,4.63319 0.003,2.07715 0.004,2.39671 7.1e-4,0.47934 0.002,1.43803 10e-4,0.95868 0.16843,1.75736 l 0.33498,2.23648 0.0682,46.4962 -0.49684,0.48002 q -0.49754,6.8e-4 -0.99485,0.16114 -0.99463,0.32092 -1.49217,0.3216 -0.99509,10e-4 -1.4924,0.16181 -0.49731,0.16046 -0.82877,0.32069 -1.32679,0.002 -2.4889,-0.79551 -1.16235,-0.95711 -1.99347,-2.23422 -0.99696,-1.27689 -1.49662,-2.71424 -0.49965,-1.43735 -0.50129,-2.55582 l -0.007,-4.79342 q -4.7e-4,-0.31956 -0.3331,-0.95824 -0.16632,-0.31933 -0.16656,-0.47911 -0.33169,4.5e-4 -1.32702,-0.15797 -0.99556,-0.31821 -1.32725,-0.31776 l 7e-4,0.47934 q -1.16094,0.002 -1.99088,-0.47663 -0.83018,-0.63799 -1.99112,-0.63641 l -9.12166,0.0124 q -1.16211,-0.79733 -2.65475,-0.79529 -1.49287,-0.15775 -2.6538,-0.15617 -1.49264,0.002 -3.15065,0.32385 -1.65825,0.16204 -3.48259,0.16453 l -0.49754,6.8e-4 q -0.3317,4.5e-4 -1.65919,-0.47709 -1.49334,-0.4773 -1.82503,-0.47685 l -4.14621,0.006 q -2.65358,0.004 -4.64329,0.32588 -2.15579,0.16272 -4.47532,1.76369 -0.49755,6.8e-4 -1.8241,0.16227 -1.32679,0.002 -2.65334,0.16339 -1.32679,0.002 -2.65334,0.1634 -1.32679,0.002 -1.82433,0.002 l -21.89198,0.0298 q -0.3317,4.5e-4 -1.32609,0.48115 -1.16047,0.32114 -1.15882,1.4396 0.49777,0.15911 0.99579,0.47799 0.6641,0.47844 1.49334,0.47731 3.48492,1.43328 6.63862,3.18658 2.98785,1.75352 6.14178,3.6666 1.82598,1.11598 3.98318,1.91194 2.1572,0.79597 3.98317,1.91195 4.31534,2.23106 8.13314,4.46279 3.81756,2.07196 8.1322,3.82367 0.33169,-4.5e-4 1.82503,0.47686 1.32749,0.47753 1.65919,0.47708 4.31464,1.75172 8.46389,3.82322 3.98341,2.07173 8.29828,3.98322 1.32749,0.47754 3.31908,1.43351 1.99159,0.95597 3.98318,1.91195 2.32351,1.1153 4.81312,2.39016 l 0.99649,0.95733 q -1.48982,1.9194 -3.97614,2.88147 -2.65216,0.9623 -4.6407,2.08348 l -1.98807,1.44074 -0.49755,6.7e-4 q -2.3214,0.32273 -3.48117,1.12321 -1.32585,0.64093 -3.64608,1.76256 l -1.49053,1.44006 -2.98527,0.004 q -1.82433,0.002 -2.65217,0.9623 -0.82807,0.80003 -2.32023,1.12163 -3.14995,0.80319 -6.13428,1.44638 -2.98433,0.64319 -6.13428,1.44639 l -1.49193,0.48138 q -4.14363,1.76323 -8.78598,2.72824 -4.64258,0.80523 -8.78621,2.56847 -2.32,1.28141 -4.47368,2.88215 -2.31977,1.44119 -4.64,2.56282 l -0.49755,6.8e-4 q -0.16585,2.3e-4 -0.99462,0.32092 -0.99462,0.32091 -1.98924,0.64183 -1.16047,0.32114 -1.98924,0.64184 -0.99463,0.32091 -1.16047,0.32114 -0.3317,4.5e-4 -1.16071,0.16136 -0.99509,0.001 -1.32561,0.80071 -0.33146,0.16023 -1.49193,0.48138 -1.16047,0.32114 -2.32071,0.80206 -1.32632,0.32137 -2.32094,0.64229 -1.16047,0.32114 -1.49169,0.64116 -3.81241,1.44322 -7.29405,2.24687 -3.64749,0.80387 -6.29637,4.0031 l 0.99649,0.95733 q 1.32656,-0.16159 2.48726,-0.32295 0.99485,-0.16113 1.98994,-0.16249 0.82925,-0.001 1.49264,-0.002 l 1.65778,-0.48161 q 0.3317,-4.5e-4 1.49264,-0.002 1.1607,-0.16136 2.48749,-0.16317 1.32655,-0.16159 2.48749,-0.16317 1.1607,-0.16136 1.4924,-0.16181 4.64328,-0.32589 9.28586,-1.13112 4.4765,-0.96478 8.95394,-1.29045 l 6.13639,-0.008 q 0.16585,-2.3e-4 0.99509,-10e-4 0.66316,-0.16068 1.65825,-0.16204 0.829,-0.16091 1.65825,-0.16204 0.829,-0.16091 1.1607,-0.16136 3.15065,-0.32386 6.46785,-0.16859 3.15112,-0.004 6.13522,-0.80727 l 16.75068,-0.0228 q 0.33217,0.31911 0.9965,0.95733 0.6641,0.47844 0.99579,0.47799 l 0.49755,-6.8e-4 0.99368,-0.96004 q 0.82901,-0.16091 4.80913,-0.32611 3.81428,-0.16498 8.29195,-0.33086 4.31183,-0.16565 7.79417,-0.48996 3.48235,-0.3243 3.48165,-0.80365 -0.002,-1.27824 -0.17007,-2.87583 -0.1682,-1.59758 0.65893,-3.03673 l 0.99298,-1.43939 -0.0108,-7.34991 0.99204,-2.07851 0.49403,-2.39739 q 0.82713,-1.43915 2.98222,-2.08121 1.989,-0.80162 3.64749,-0.80388 0.82924,-0.001 1.82456,0.1573 0.82925,-10e-4 1.16212,0.79732 4.6e-4,0.31956 0.16842,1.75736 0.33358,1.2778 0.33405,1.59736 l 0.0288,19.65303 q 0.0117,7.98904 -0.14427,14.70006 0.01,6.55101 -0.31036,14.5405 z m -90.20011,-98.30228 q 4.7e-4,0.31956 0.49801,0.31888 0.49755,-6.7e-4 0.49708,-0.32023 -4.7e-4,-0.31957 -0.49802,-0.31889 -0.49754,6.8e-4 -0.49707,0.32024 z m -17.33341,54.98831 q 4.7e-4,0.31956 0.49801,0.31888 0.49755,-6.7e-4 0.49708,-0.32023 -4.7e-4,-0.31957 -0.49801,-0.31889 -0.49755,6.8e-4 -0.49708,0.32024 z m -6.30529,-2.06856 q 7.1e-4,0.47934 0.49825,0.47866 0.49755,-6.8e-4 0.49684,-0.48002 -4.7e-4,-0.31956 -0.49801,-0.31888 -0.49755,6.7e-4 -0.49708,0.32024 z m -0.0115,-7.82926 q 4.7e-4,0.31956 0.49802,0.31888 0.49754,-6.8e-4 0.49707,-0.32024 -4.7e-4,-0.31956 -0.49801,-0.31888 -0.49755,6.8e-4 -0.49708,0.32024 z m -3.13071,13.90522 q 4.6e-4,0.31956 0.66386,0.31866 0.49754,-6.8e-4 0.49707,-0.32024 -4.6e-4,-0.31957 -0.49801,-0.31889 -0.66339,9.1e-4 -0.66292,0.32047 z m -1.01268,-11.98221 q 4.7e-4,0.31957 0.49801,0.31889 0.49755,-6.8e-4 0.49708,-0.32024 -4.7e-4,-0.31956 -0.49802,-0.31888 -0.49754,6.7e-4 -0.49707,0.32023 z m -0.99369,0.96005 q 4.7e-4,0.31956 0.49802,0.31888 0.49754,-6.8e-4 0.49708,-0.32024 -4.7e-4,-0.31956 -0.49802,-0.31888 -0.49754,6.7e-4 -0.49708,0.32024 z m -2.64911,3.03944 q -0.001,-0.7989 -0.33358,-1.27779 -0.33263,-0.63867 -1.16187,-0.63754 l -0.49755,6.8e-4 1.993,1.91465 z m -1.48537,4.95524 q 4.7e-4,0.31956 0.49802,0.31889 0.49754,-6.8e-4 0.49707,-0.32024 -4.7e-4,-0.31956 -0.49801,-0.31889 -0.49755,6.8e-4 -0.49708,0.32024 z m -0.97023,16.93812 q 4.7e-4,0.31956 0.49801,0.31888 0.49755,-6.7e-4 0.49708,-0.32024 -4.7e-4,-0.31956 -0.49802,-0.31888 -0.49754,6.8e-4 -0.49707,0.32024 z m -1.66716,-5.90963 q -0.33123,0.32001 1.16141,0.31798 1.32678,-0.002 0.99462,-0.32092 -0.9965,-0.95733 -2.15603,0.003 z m 2.13258,-15.98101 -2.15744,-0.95575 0.001,0.95868 2.15603,-0.003 z m -1.44738,30.83972 q 4.7e-4,0.31956 0.49801,0.31888 0.49755,-6.7e-4 0.49708,-0.32024 -4.7e-4,-0.31956 -0.49801,-0.31888 -0.49755,6.8e-4 -0.49708,0.32024 z m 0.48746,-6.87125 q -0.33169,4.5e-4 -0.33099,0.47979 7e-4,0.47934 0.3324,0.47889 0.3317,-4.5e-4 0.33099,-0.47979 -7e-4,-0.47934 -0.3324,-0.47889 z m -0.54304,-30.9968 q 7.1e-4,0.47935 0.49825,0.47867 0.49755,-6.8e-4 0.49684,-0.48002 -4.7e-4,-0.31956 -0.49801,-0.31888 -0.49755,6.7e-4 -0.49708,0.32023 z m -1.11849,28.92191 q 4.7e-4,0.31956 0.66386,0.31866 0.49755,-6.8e-4 0.49708,-0.32024 -4.7e-4,-0.31957 -0.49802,-0.31889 -0.66339,9.1e-4 -0.66292,0.32047 z m -0.0277,-18.85413 q 4.7e-4,0.31956 0.66386,0.31865 0.49755,-6.7e-4 0.49708,-0.32024 -4.7e-4,-0.31956 -0.49802,-0.31888 -0.66339,9e-4 -0.66292,0.32047 z m -0.97915,10.86644 q 4.7e-4,0.31957 0.49802,0.31889 0.49754,-6.8e-4 0.49707,-0.32024 -4.6e-4,-0.31956 -0.49801,-0.31889 -0.49754,6.8e-4 -0.49708,0.32024 z m 0.48442,-8.9484 -10e-4,-0.95868 -0.99368,0.96004 0.99509,-0.001 z m -0.51068,-8.94704 q 4.7e-4,0.31956 0.49801,0.31888 0.49755,-6.8e-4 0.49708,-0.32024 -4.7e-4,-0.31956 -0.49801,-0.31888 -0.49755,6.8e-4 -0.49708,0.32024 z m -0.004,-3.03584 q 7.1e-4,0.47934 0.49825,0.47867 0.49755,-6.8e-4 0.49684,-0.48002 -4.6e-4,-0.31957 -0.49801,-0.31889 -0.49754,6.8e-4 -0.49708,0.32024 z m -1.44432,32.91688 q 4.7e-4,0.31956 0.49801,0.31888 0.49755,-6.8e-4 0.49708,-0.32024 -4.7e-4,-0.31956 -0.49802,-0.31888 -0.49754,6.7e-4 -0.49707,0.32024 z m 0.49027,-4.95389 q 4.7e-4,0.31957 0.49802,0.31889 0.49754,-6.8e-4 0.49707,-0.32024 -4.7e-4,-0.31956 -0.49801,-0.31889 -0.49755,6.8e-4 -0.49708,0.32024 z m -0.50059,-2.07647 q 0.82877,-0.32069 1.1593,-1.12005 0.33029,-0.95913 0.32911,-1.75804 l -3.15112,0.004 q 0.001,0.7989 0.50013,1.75691 0.33287,0.79845 1.16258,1.11688 z m 0.48019,-11.82445 q 4.7e-4,0.31956 0.49801,0.31888 0.49755,-6.8e-4 0.49708,-0.32024 -4.7e-4,-0.31956 -0.49801,-0.31888 -0.49755,6.7e-4 -0.49708,0.32024 z m -0.50341,-3.99385 q -0.33287,-0.79845 -0.003,-1.75758 0.16444,-0.95891 0.99322,-1.27961 -0.33334,-1.11801 -1.99206,-1.27553 -1.82457,-0.1573 -2.15626,-0.15684 0.002,1.43802 0.83346,2.87492 0.66527,1.27734 2.32422,1.59464 z m 0.0291,19.81282 -7e-4,-0.47934 q -0.004,-2.39671 -2.15955,-2.39378 l -0.99509,0.001 3.15534,2.87176 z m -2.17643,-13.89799 q -0.16585,2.3e-4 0.16655,0.47912 0.33217,0.31911 0.83042,0.79777 0.33216,0.31911 0.83018,0.63799 0.33216,0.31911 0.33193,0.15933 -7.1e-4,-0.47934 -0.83112,-1.27711 -0.99626,-0.79755 -1.32796,-0.7971 z m -0.46401,22.84933 q 7e-4,0.47934 0.49825,0.47866 0.49754,-6.7e-4 0.49684,-0.48002 -4.7e-4,-0.31956 -0.49801,-0.31888 -0.49755,6.8e-4 -0.49708,0.32024 z m -0.0131,-8.94772 q 4.7e-4,0.31956 0.49801,0.31888 0.49755,-6.8e-4 0.49708,-0.32024 -4.7e-4,-0.31956 -0.49802,-0.31888 -0.49754,6.7e-4 -0.49707,0.32024 z m -0.0174,-11.82378 q 4.7e-4,0.31956 0.49802,0.31888 0.49754,-6.8e-4 0.49707,-0.32024 -7e-4,-0.47934 -0.49824,-0.47866 -0.49755,6.8e-4 -0.49685,0.48002 z m -0.0235,-15.97808 q 4.7e-4,0.31956 0.49802,0.31888 0.49754,-6.7e-4 0.49707,-0.32024 -4.6e-4,-0.31956 -0.49801,-0.31888 -0.49754,6.8e-4 -0.49708,0.32024 z m -0.9381,38.82809 q 4.7e-4,0.31956 0.49801,0.31888 0.49755,-6.8e-4 0.49708,-0.32024 -4.7e-4,-0.31956 -0.49802,-0.31888 -0.49754,6.7e-4 -0.49707,0.32024 z m -0.0131,-8.94773 q 4.7e-4,0.31956 0.49801,0.31889 0.49755,-6.8e-4 0.49708,-0.32024 -4.7e-4,-0.31957 -0.49802,-0.31889 -0.49754,6.8e-4 -0.49707,0.32024 z m 0.48441,-8.9484 q -0.3317,4.5e-4 -0.33099,0.47979 7e-4,0.47935 0.3324,0.47889 0.33169,-4.5e-4 0.33099,-0.47979 -7e-4,-0.47934 -0.3324,-0.47889 z m -1.00822,-8.94637 q 0.82877,-0.32069 0.99391,-0.80026 -7e-4,-0.47934 -0.002,-1.27824 l -0.001,-0.95869 q -0.33052,0.79936 -0.66152,1.27915 -0.33099,0.4798 -0.32982,1.2787 l 7.1e-4,0.47934 0,0 z m -0.51514,-11.98288 q 4.7e-4,0.31956 0.49802,0.31888 0.49754,-6.7e-4 0.49707,-0.32023 -4.6e-4,-0.31957 -0.49801,-0.31889 -0.49755,6.8e-4 -0.49708,0.32024 z m -0.94256,35.79225 q 4.7e-4,0.31956 0.49802,0.31889 0.49754,-6.8e-4 0.49707,-0.32024 -4.7e-4,-0.31957 -0.49801,-0.31889 -0.49755,6.8e-4 -0.49708,0.32024 z m -0.009,-5.91189 q 4.7e-4,0.31956 0.49801,0.31889 0.49755,-6.8e-4 0.49708,-0.32024 -4.7e-4,-0.31956 -0.49802,-0.31889 -0.49754,6.8e-4 -0.49707,0.32024 z m 0.48582,-7.98971 -10e-4,-0.95869 -1.16094,0.002 1.16235,0.95711 z m -1.65262,3.99677 q 4.6e-4,0.31957 0.66386,0.31866 0.49754,-6.8e-4 0.49707,-0.32024 -4.7e-4,-0.31956 -0.49801,-0.31888 -0.66339,9e-4 -0.66292,0.32046 z m -0.0249,-16.93676 q 4.7e-4,0.31956 0.66386,0.31866 0.49755,-6.8e-4 0.49708,-0.32024 -4.7e-4,-0.31956 -0.49802,-0.31888 -0.66339,9e-4 -0.66292,0.32046 z m 31.74275,-68.26977 q 4.7e-4,0.31956 0.49801,0.31889 0.49755,-6.8e-4 0.49708,-0.32024 -4.7e-4,-0.31957 -0.49802,-0.31889 -0.49754,6.8e-4 -0.49707,0.32024 z m -1.65403,3.0381 -7e-4,-0.47935 q -10e-4,-0.7989 -0.49966,-1.43735 -0.66456,-0.798 -1.49428,-1.11643 l 1.99464,3.03313 z m -1.48982,1.9194 q 7e-4,0.47934 0.49825,0.47866 0.49754,-6.7e-4 0.49684,-0.48002 -4.7e-4,-0.31956 -0.49801,-0.31888 -0.49755,6.8e-4 -0.49708,0.32024 z m -3.15675,-3.83045 q 4.7e-4,0.31956 0.66387,0.31866 0.49754,-6.8e-4 0.49707,-0.32024 -7e-4,-0.47934 -0.49825,-0.47866 -0.66339,9e-4 -0.66269,0.48024 z m -0.99368,0.96004 q 4.7e-4,0.31956 0.49801,0.31889 0.49755,-6.8e-4 0.49708,-0.32024 -4.7e-4,-0.31956 -0.49801,-0.31889 -0.49755,6.8e-4 -0.49708,0.32024 z m -1.99159,-0.95597 q 4.7e-4,0.31956 0.49802,0.31888 0.49754,-6.8e-4 0.49707,-0.32024 -7e-4,-0.47934 -0.49825,-0.47866 -0.49754,6.8e-4 -0.49684,0.48002 z m -0.49614,0.95936 q -0.33169,4.5e-4 -0.33099,0.4798 7e-4,0.47934 0.3324,0.47889 0.3317,-4.6e-4 0.33099,-0.4798 -7e-4,-0.47934 -0.3324,-0.47889 z m -0.51654,-12.94156 q 4.7e-4,0.31956 0.49802,0.31888 0.49754,-6.8e-4 0.49707,-0.32024 -4.6e-4,-0.31956 -0.49801,-0.31888 -0.49754,6.7e-4 -0.49708,0.32024 z m -1.12881,21.89154 q 4.7e-4,0.31957 0.66387,0.31866 0.49754,-6.8e-4 0.49707,-0.32024 -4.7e-4,-0.31956 -0.49801,-0.31888 -0.6634,9e-4 -0.66293,0.32046 z m -0.0103,-7.03035 q 4.7e-4,0.31956 0.66387,0.31866 0.49754,-6.8e-4 0.49707,-0.32024 -4.7e-4,-0.31956 -0.49801,-0.31889 -0.66339,9.1e-4 -0.66293,0.32047 z m -0.99063,3.03719 q 4.7e-4,0.31956 0.49801,0.31888 0.49755,-6.7e-4 0.49708,-0.32024 -4.7e-4,-0.31956 -0.49801,-0.31888 -0.49755,6.8e-4 -0.49708,0.32024 z m -0.99368,0.96004 q 4.7e-4,0.31956 0.49801,0.31888 0.49755,-6.7e-4 0.49708,-0.32024 -4.7e-4,-0.31956 -0.49802,-0.31888 -0.49754,6.8e-4 -0.49707,0.32024 z m -0.0101,-6.87057 q 4.7e-4,0.31956 0.49802,0.31888 0.49754,-6.8e-4 0.49707,-0.32024 -7e-4,-0.47934 -0.49825,-0.47866 -0.49754,6.7e-4 -0.49684,0.48002 z m -0.004,-3.03584 q 4.7e-4,0.31956 0.49801,0.31889 0.49755,-6.8e-4 0.49708,-0.32024 -4.7e-4,-0.31957 -0.49802,-0.31889 -0.49754,6.8e-4 -0.49707,0.32024 z m -1.66576,-4.95094 q 0.49708,-0.32024 1.32468,-1.43984 0.82737,-1.27937 0.8269,-1.59893 -4.7e-4,-0.31957 -0.83089,-1.11734 -0.83041,-0.79777 -1.32796,-0.7971 l -2.98104,2.88012 q 0.82971,0.31844 1.8255,0.79642 0.82995,0.47821 1.16281,1.27667 z m 1.1783,11.82219 -2.15603,0.003 0.99673,1.11711 1.1593,-1.12005 z m -1.17103,-6.86899 q -0.33122,0.32001 0.33287,0.79845 0.49825,0.47867 0.82948,0.15865 0.33123,-0.32001 -0.16702,-0.79867 -0.49825,-0.47867 -0.99533,-0.15843 z m -0.49309,3.03651 q -0.004,-2.39671 -2.49358,-3.99113 0.83041,0.79778 0.99767,1.75624 0.001,0.95868 0.003,2.23693 l 1.49263,-0.002 z m -4.15793,-7.98339 q 4.7e-4,0.31956 0.66386,0.31866 0.49755,-6.8e-4 0.49708,-0.32024 -4.7e-4,-0.31956 -0.49801,-0.31888 -0.6634,9e-4 -0.66293,0.32046 z m -0.004,-3.03583 q 4.6e-4,0.31956 0.66386,0.31866 0.49754,-6.8e-4 0.49707,-0.32024 -4.7e-4,-0.31956 -0.49801,-0.31889 -0.66339,9.1e-4 -0.66292,0.32047 z m -0.9761,12.9436 q 4.7e-4,0.31956 0.49801,0.31888 0.49755,-6.8e-4 0.49708,-0.32024 -4.7e-4,-0.31956 -0.49801,-0.31888 -0.49755,6.8e-4 -0.49708,0.32024 z m -0.0263,-17.89545 q 4.6e-4,0.31956 0.49801,0.31888 0.49754,-6.7e-4 0.49708,-0.32024 -4.7e-4,-0.31956 -0.49802,-0.31888 -0.49754,6.8e-4 -0.49707,0.32024 z m -2.80887,7.19398 q 2.3e-4,0.15978 0.49754,-6.8e-4 0.33123,-0.32002 0.99415,-0.64048 0.49684,-0.48002 0.99369,-0.96004 0.33099,-0.4798 0.33075,-0.63958 -2.3e-4,-0.15978 -0.33146,0.16024 -0.49731,0.16045 -0.99415,0.64047 -0.66292,0.32047 -0.99392,0.80026 -0.49684,0.48002 -0.4966,0.63981 z m -1.974,11.02758 q 4.7e-4,0.31956 0.49801,0.31888 0.49755,-6.7e-4 0.49708,-0.32024 -7.1e-4,-0.47934 -0.49825,-0.47866 -0.49755,6.8e-4 -0.49684,0.48002 z m -0.6709,-5.11208 q 7e-4,0.47934 0.6641,0.47844 0.49754,-6.8e-4 0.49684,-0.48002 -4.7e-4,-0.31956 -0.49802,-0.31889 -0.66339,9.1e-4 -0.66292,0.32047 z m 0.66058,-1.91827 q -0.002,-1.11847 -1.66153,-2.0749 -1.65989,-0.95642 -1.99159,-0.95597 0.33287,0.79845 0.66574,1.59691 0.33263,0.63867 0.3338,1.43757 l 2.65358,-0.004 z m -2.16049,-3.0329 q 4.7e-4,0.31956 0.49802,0.31888 0.49754,-6.8e-4 0.49707,-0.32024 -4.6e-4,-0.31956 -0.49801,-0.31888 -0.49754,6.8e-4 -0.49708,0.32024 z m 41.6127,-10.44246 -0.001,-0.95868 -2.15603,0.003 10e-4,0.95869 2.15603,-0.003 z m -4.14199,2.8817 q 7e-4,0.47934 0.49825,0.47867 0.49754,-6.8e-4 0.49684,-0.48002 -4.7e-4,-0.31956 -0.49801,-0.31889 -0.49755,6.8e-4 -0.49708,0.32024 z m -0.50036,-1.91669 q 4.7e-4,0.31956 0.49802,0.31888 0.49754,-6.7e-4 0.49707,-0.32023 -4.7e-4,-0.31957 -0.49801,-0.31889 -0.49755,6.8e-4 -0.49708,0.32024 z m -1.66434,-3.99226 q 10e-4,0.7989 0.49965,1.43735 0.33264,0.63867 1.16188,0.63754 l 0.49754,-6.8e-4 -2.15907,-2.07421 0,0 z m -0.99064,3.03719 q 4.7e-4,0.31956 0.49801,0.31888 0.49755,-6.7e-4 0.49708,-0.32023 -4.7e-4,-0.31957 -0.49801,-0.31889 -0.49755,6.8e-4 -0.49708,0.32024 z m -0.49168,3.9952 q 4.7e-4,0.31956 0.49801,0.31888 0.49755,-6.8e-4 0.49708,-0.32024 -4.7e-4,-0.31956 -0.49802,-0.31888 -0.49754,6.8e-4 -0.49707,0.32024 z m -6.14952,-8.93937 q 4.7e-4,0.31957 0.49801,0.31889 0.49755,-6.8e-4 0.49708,-0.32024 -4.7e-4,-0.31956 -0.49802,-0.31889 -0.49754,6.8e-4 -0.49707,0.32024 z" />
    <path
       inkscape:connector-curvature="0"
       id="path4197"
       style="font-style:normal;font-variant:normal;font-weight:500;font-stretch:normal;font-size:medium;line-height:125%;font-family:'HVD Bodedo';-inkscape-font-specification:'HVD Bodedo Medium';letter-spacing:0px;word-spacing:0px;fill:#333537;fill-opacity:1;stroke:none;stroke-width:1px;stroke-linecap:butt;stroke-linejoin:miter;stroke-opacity:1"
       d="m 397.96943,343.25176 q 0,-1.015 0.14,-2.065 0.175,-1.05 0.175,-2.1 0,-0.7 -0.07,-1.225 -0.07,-0.56 -0.14,-1.225 0,-0.035 -0.035,-0.245 0,-0.21 -0.035,-0.455 0,-0.28 -0.035,-0.525 0,-0.245 0,-0.35 0,-0.49 -0.07,-0.91 -0.07,-0.42 -0.14,-0.91 0,-0.315 -0.105,-0.665 -0.07,-0.21 -0.105,-0.42 l -0.105,-0.105 q -0.175,-0.035 -0.315,-0.105 -0.245,-0.105 -0.49,-0.105 l -0.735,0 q -0.175,0 -0.525,0 -0.315,-0.035 -0.63,-0.07 -0.385,-0.035 -0.77,-0.035 l -0.315,-0.105 q 0,-0.035 -0.035,-0.105 -0.07,-0.14 -0.07,-0.21 0,-0.385 0.105,-0.49 0.105,-0.105 0.42,-0.35 0.665,-0.21 1.365,-0.525 0.7,-0.315 1.33,-0.665 0.665,-0.385 1.155,-0.77 0.525,-0.42 0.84,-0.805 0.77,-0.63 1.12,-1.05 0.385,-0.42 0.665,-0.77 0.28,-0.385 0.595,-0.84 0.315,-0.455 0.98,-1.19 0.175,0 0.56,-0.105 0.42,-0.14 0.49,-0.14 0.14,-0.035 0.49,-0.07 0.385,-0.07 0.805,-0.105 0.42,-0.07 0.805,-0.105 0.385,-0.035 0.525,-0.035 l 0,5.565 q 0,0.245 0.07,0.455 0.105,0.21 0.35,0.28 l 1.295,0 q 1.015,0 2.065,-0.14 1.085,-0.175 2.205,-0.175 0.21,0 0.28,0.21 0.07,0.21 0.07,0.49 0,0.245 -0.035,0.525 0,0.28 0,0.385 l 0,0.525 -0.105,0.105 -3.745,0 q -0.105,0 -0.42,0.035 -0.28,0 -0.595,0.035 -0.315,0 -0.63,0.035 -0.28,0 -0.385,0 -0.28,0.14 -0.42,0.42 l 0,1.4 -0.105,0.315 0,0.21 q 0,0.735 0.105,1.4 0.105,0.665 0.105,1.365 l 0,0.98 q -0.07,0.07 -0.21,0.315 -0.105,0.245 -0.105,0.42 l 0,1.4 -0.105,0.315 0,0.105 q 0,0.07 0.105,0.21 0.105,0.14 0.105,0.21 l 0,1.295 q 0,0.035 0.175,0.21 0.21,0.175 0.455,0.35 0.245,0.175 0.49,0.35 0.28,0.14 0.385,0.14 0.245,0 0.665,-0.21 0.455,-0.245 0.7,-0.315 0.42,-0.175 0.665,-0.35 0.28,-0.21 0.525,-0.595 l 0.105,-0.455 q 0.035,-0.105 0.07,-0.35 0.035,-0.245 0.07,-0.49 0.035,-0.28 0.105,-0.49 0.07,-0.245 0.175,-0.315 0.385,-0.315 0.735,-0.175 0.385,0.14 0.875,0.14 l 0,1.26 q 0,0.735 -0.315,1.225 -0.315,0.49 -0.665,1.12 -0.175,0.245 -0.315,0.595 -0.14,0.35 -0.315,0.595 -0.98,1.225 -2.31,1.89 -1.295,0.665 -2.905,0.665 l -2.31,0 q -0.7,-0.385 -1.505,-0.7 -0.77,-0.35 -1.47,-0.7 -0.245,-0.07 -0.595,-0.175 -0.315,-0.105 -0.49,-0.35 -0.245,-0.315 -0.49,-0.7 -0.245,-0.42 -0.245,-0.91 z m 4.795,-6.055 q 0.315,0 0.315,-0.21 l -0.105,0 -0.315,0.105 0.105,0.105 z m -2.73,3.045 q -0.07,0 -0.07,0.14 0,0.105 0.07,0.105 0.07,0 0.07,-0.105 0,-0.14 -0.07,-0.14 z m -0.21,-1.085 q -0.105,0 -0.105,0.105 0,0.105 0.105,0.105 0.07,0 0.07,-0.105 0,-0.105 -0.07,-0.105 z m 0.42,-0.21 q -0.07,0 -0.07,0.105 0,0.105 0.07,0.105 0.07,0 0.07,-0.105 0,-0.105 -0.07,-0.105 z m -0.665,-0.105 q 0,-0.07 -0.105,-0.07 -0.105,0 -0.105,0.07 0,0.07 0.105,0.07 0.105,0 0.105,-0.07 z m 0.455,-0.35 q -0.07,0 -0.07,0.14 0,0.105 0.07,0.105 0.07,0 0.07,-0.105 0,-0.14 -0.07,-0.14 z m 0.105,-0.525 q -0.175,0 -0.245,0.14 -0.07,0.105 -0.07,0.28 l 0.42,-0.42 -0.105,0 0,0 z m 1.19,0.315 q -0.07,0 -0.07,0.105 0,0.105 0.07,0.105 0.07,0 0.07,-0.105 0,-0.105 -0.07,-0.105 z m -0.875,-0.21 q -0.07,0 -0.07,0.105 0,0.105 0.07,0.105 0.07,0 0.07,-0.105 0,-0.105 -0.07,-0.105 z m 0.665,-0.56 q -0.07,0 -0.07,0.14 0,0.105 0.07,0.105 0.07,0 0.07,-0.105 0,-0.14 -0.07,-0.14 z m -1.75,-0.525 q -0.07,0 -0.07,0.105 0,0.105 0.07,0.105 0.07,0 0.07,-0.105 0,-0.105 -0.07,-0.105 z m 1.75,0.105 0,-0.21 -0.21,0 0.21,0.21 z m 0.42,-0.665 q 0,0.07 0.07,0.28 0.105,0.175 0.175,0.175 l 0.42,-0.245 q 0,-0.175 -0.07,-0.28 -0.07,-0.14 -0.245,-0.14 -0.07,0 -0.21,0.035 -0.14,0 -0.14,0.175 z m -2.835,-0.42 q 0,0.175 0.07,0.315 0.105,0.14 0.175,0.315 l -0.245,0 q 0.28,-0.245 0.56,-0.28 0.315,-0.035 0.665,-0.035 0,-0.245 -0.21,-0.595 -0.175,-0.385 -0.56,-0.385 -0.175,0 -0.21,0.105 -0.035,0.07 -0.035,0.21 0.035,0.105 0.07,0.21 0.07,0.105 0.07,0.14 l -0.35,0 0,0 z m 2.205,0.105 q -0.07,0 -0.07,0.105 0,0.105 0.07,0.105 0.07,0 0.07,-0.105 0,-0.105 -0.07,-0.105 z m 1.295,-0.455 q -0.07,0 -0.07,0.14 0,0.105 0.07,0.105 0.07,0 0.07,-0.105 0,-0.14 -0.07,-0.14 z m -2.625,-0.525 q 0.175,-0.07 0.21,-0.14 0.035,-0.105 0.035,-0.175 0,-0.105 -0.035,-0.175 -0.035,-0.105 -0.21,-0.175 l 0,0.665 z m 0,-1.75 q 0,-0.07 -0.105,-0.07 -0.105,0 -0.105,0.07 0,0.07 0.105,0.07 0.105,0 0.105,-0.07 z m -0.875,-0.665 0.455,0 -0.455,-0.21 0,0.21 z m 1.995,0 q 0.175,-0.07 0.175,-0.14 0.035,-0.105 0.035,-0.175 l 0,-0.105 -0.21,0.42 z m -0.665,-0.42 q -0.07,0 -0.07,0.105 0,0.105 0.07,0.105 0.07,0 0.07,-0.105 0,-0.105 -0.07,-0.105 z m 0.42,0 q -0.07,0 -0.07,0.105 0,0.105 0.07,0.105 0.07,0 0.07,-0.105 0,-0.105 -0.07,-0.105 z m 1.33,0.105 q -0.07,0 -0.07,0.105 0,0.105 0.07,0.105 0.07,0 0.07,-0.105 0,-0.105 -0.07,-0.105 z m -2.835,-0.98 q 0.245,0.07 0.28,0.455 0.035,0.35 0.035,0.42 0.175,0 0.315,-0.245 0.14,-0.245 0.245,-0.42 -0.175,-0.175 -0.35,-0.175 -0.14,-0.035 -0.315,-0.035 l -0.21,0 0,0 z m -0.35,0 q -0.175,0 -0.245,0.14 -0.07,0.105 -0.07,0.28 l 0,0.245 q 0.07,-0.175 0.14,-0.385 0.105,-0.21 0.28,-0.28 l -0.105,0 0,0 z m -0.315,-0.875 q -0.175,0.07 -0.21,0.175 0,0.07 0,0.245 l 0.21,0 0,-0.42 0,0 z m 0.665,0.21 q -0.07,-0.07 -0.21,0.035 -0.105,0.105 -0.035,0.175 0.105,0.105 0.21,0 0.105,-0.14 0.035,-0.21 z m 0.42,0 q -0.07,0 -0.07,0.105 0,0.105 0.07,0.105 0.07,0 0.07,-0.105 0,-0.105 -0.07,-0.105 z m -0.665,-0.77 q -0.07,0 -0.07,0.14 0,0.105 0.07,0.105 0.105,0 0.105,-0.105 0,-0.14 -0.105,-0.14 z m -1.085,-0.21 q -0.07,0 -0.07,0.105 0,0.105 0.07,0.105 0.07,0 0.07,-0.105 0,-0.105 -0.07,-0.105 z" />
    <path
       inkscape:connector-curvature="0"
       id="path4199"
       style="font-style:normal;font-variant:normal;font-weight:500;font-stretch:normal;font-size:medium;line-height:125%;font-family:'HVD Bodedo';-inkscape-font-specification:'HVD Bodedo Medium';letter-spacing:0px;word-spacing:0px;fill:#333537;fill-opacity:1;stroke:none;stroke-width:1px;stroke-linecap:butt;stroke-linejoin:miter;stroke-opacity:1"
       d="m 418.98502,344.26676 q -0.035,-0.315 -0.455,-0.525 -0.385,-0.21 -0.525,-0.56 -0.28,-0.455 -0.455,-0.91 -0.14,-0.49 -0.21,-0.98 0,-0.105 0,-0.28 0,-0.175 0,-0.385 0,-0.21 -0.035,-0.385 0,-0.175 0,-0.245 0,-1.54 0,-2.975 0,-1.47 0.175,-2.975 0.07,-0.805 0.14,-1.505 0.07,-0.7 0.035,-1.505 0.175,-0.07 0.14,-0.315 -0.035,-0.245 -0.035,-0.315 l 0,-0.21 q 0,-0.07 -0.035,-0.14 l -0.07,-0.105 -2.345,0.035 q 0,-0.07 -0.035,-0.245 0,-0.175 0,-0.385 0,-0.21 0.035,-0.385 0.07,-0.175 0.21,-0.28 0.245,0.035 0.84,-0.035 0.63,-0.07 0.875,-0.035 0.49,-0.035 1.365,-0.07 0.875,-0.035 1.82,-0.07 0.945,-0.07 1.75,-0.105 0.805,-0.035 1.12,-0.035 0.07,-0.035 0.175,-0.035 l 0.245,0 0.035,0.105 q 0,0.07 0.035,0.28 0.035,0.175 0.035,0.245 0,0.07 0,0.315 0,0.21 -0.035,0.49 0,0.245 -0.035,0.49 0,0.245 0,0.315 l 0.105,0.21 q 0,0.14 -0.035,0.56 -0.035,0.385 -0.105,0.84 -0.035,0.42 -0.07,0.805 -0.035,0.385 -0.035,0.56 l 0,1.82 q 0,0.21 0,0.49 0,0.28 0,0.595 0.035,0.28 0.035,0.49 0,0.21 0,0.245 0,0.07 0.035,0.315 0.07,0.245 0.105,0.525 0.07,0.28 0.105,0.525 0.035,0.245 0.035,0.315 0,0.42 -0.14,0.735 -0.14,0.28 -0.105,0.595 0,0.28 0.07,0.42 0.07,0.14 0.07,0.385 0.175,0.42 0.21,0.77 0.035,0.35 0,0.84 0.105,0.14 0.21,0.175 0.14,0 0.28,0 0.14,0 0.28,0.035 0.14,0 0.245,0.105 0.07,0.07 0.21,0.35 0.14,0.245 0.175,0.315 l 0.07,0.21 0.105,0.105 q 0.175,0 0.35,-0.105 0.21,-0.105 0.42,-0.105 0.105,0 0.175,0.105 0.07,0.105 0.245,0.07 0.14,0 0.245,-0.07 0.035,-0.07 0.245,-0.385 0.21,-0.315 0.28,-0.385 l 0.105,-0.315 q 0.175,-0.35 0.385,-0.525 0.245,-0.175 0.245,-0.665 0,-0.035 -0.035,-0.21 0,-0.21 0,-0.42 0,-0.245 -0.035,-0.42 0,-0.21 0,-0.245 l 0,-0.21 q 0,-0.21 0,-0.49 0.035,-0.315 0.035,-0.63 0.035,-0.315 0.07,-0.525 0.035,-0.245 0.035,-0.28 l -0.07,-0.42 q 0,-0.175 -0.07,-0.525 -0.035,-0.35 -0.035,-0.42 0,-0.105 0,-0.35 0.035,-0.245 0.035,-0.525 0,-0.28 0,-0.525 0,-0.245 0,-0.315 -0.035,-0.735 -0.07,-1.435 0,-0.735 -0.07,-1.47 0,-0.175 -0.035,-0.42 0,-0.28 -0.035,-0.56 0,-0.28 -0.035,-0.525 0,-0.28 -0.07,-0.385 -0.035,-0.07 -0.175,-0.28 -0.07,-0.105 -0.14,-0.175 l -1.26,0.035 q -0.035,0 -0.105,-0.14 -0.035,-0.14 -0.07,-0.315 0,-0.175 -0.035,-0.35 -0.035,-0.175 -0.035,-0.245 0.035,-0.175 0.07,-0.245 0.035,-0.105 0.105,-0.175 0.84,-0.175 1.89,-0.245 1.085,-0.105 2.45,-0.14 0.07,0 0.21,0.035 0.14,0 0.28,0 l 0.35,0 q 0.21,-0.035 0.63,0 0.42,0 0.84,0.035 0.49,0.035 1.05,0.035 l 0.07,0.525 q -0.07,1.925 -0.035,3.675 0.035,1.75 0.21,3.675 0.175,2.17 0.28,4.445 0.105,2.24 -0.035,4.41 l 0.175,0.105 2.24,-0.035 q 0.14,0 0.14,0.14 0,0.07 -0.035,0.175 0,0.035 0,0.21 0.035,0.175 0.035,0.35 0,0.175 -0.035,0.35 0,0.14 -0.07,0.14 l -0.315,0 q -0.7,0.105 -1.12,0.105 -0.385,0 -0.98,0.07 -0.175,0 -0.42,0.035 -0.245,0.035 -0.315,0.07 -0.385,0.07 -0.98,0.035 -0.56,0 -1.19,-0.035 -0.63,0 -1.225,-0.035 -0.595,-0.035 -1.05,-0.035 -0.245,0 -0.35,-0.35 -0.105,-0.35 -0.175,-0.805 -0.07,-0.455 -0.105,-0.875 -0.035,-0.455 -0.14,-0.595 -0.21,0.035 -0.42,0.245 -0.175,0.175 -0.42,0.455 -0.21,0.245 -0.49,0.525 -0.245,0.245 -0.56,0.35 -0.07,0 -0.315,0.14 -0.245,0.105 -0.315,0.105 l -0.84,0.84 q -0.175,0.175 -0.49,0.14 -0.315,0 -0.49,-0.035 -1.68,0.035 -2.905,-0.49 -1.19,-0.56 -2.31,-1.785 z m 3.71,1.47 0.105,0.07 q 0.175,0.035 0.56,-0.175 0.42,-0.245 0.42,-0.49 -0.245,0.105 -0.525,0.21 -0.28,0.105 -0.56,0.28 l 0,0.105 z m 1.505,-1.015 q -0.21,0 -0.21,0.105 l 0.175,0 0.035,-0.105 0,0 z m -4.34,-9.415 q 0.07,0 0.07,-0.105 0,-0.105 -0.07,-0.105 -0.07,0 -0.07,0.105 0,0.105 0.07,0.105 z m 1.295,0.56 q 0.105,0.07 0.21,-0.035 0.105,-0.105 0.035,-0.21 -0.07,-0.07 -0.21,0.07 -0.105,0.105 -0.035,0.175 z m -1.085,0.105 q 0.07,0 0.07,-0.105 0,-0.105 -0.07,-0.105 -0.07,0 -0.07,0.105 0,0.105 0.07,0.105 z m 10.955,1.68 q -0.07,-0.035 -0.07,0.07 0,0.105 0.105,0.14 0.07,0 0.035,-0.105 0,-0.105 -0.07,-0.105 z m 0.875,-0.28 q -0.07,0 -0.07,0.14 0,0.105 0.07,0.105 0.07,0 0.07,-0.105 0,-0.14 -0.07,-0.14 z m 0.63,-0.28 q -0.07,0 -0.07,0.105 0,0.105 0.07,0.105 0.07,0 0.07,-0.105 0,-0.105 -0.07,-0.105 z m -0.21,-0.245 q -0.105,-0.07 -0.21,0.035 -0.07,0.105 0,0.175 0.07,0.07 0.175,0 0.105,-0.105 0.035,-0.21 z m -2.38,-0.315 q -0.105,0 -0.14,0.14 0,0.105 0.105,0.105 0.07,0 0.07,-0.105 0.035,-0.14 -0.035,-0.14 z m 2.835,-0.455 q -0.105,0 -0.105,0.105 0,0.105 0.105,0.105 0.07,0 0.07,-0.105 0,-0.105 -0.07,-0.105 z m -3.115,-0.63 q -0.07,0 -0.07,0.105 0,0.105 0.07,0.105 0.07,0 0.07,-0.105 0,-0.105 -0.07,-0.105 z m 2.415,-0.665 q -0.07,0 -0.07,0.105 0.035,0.105 0.105,0.105 0.07,0 0.035,-0.105 0,-0.105 -0.07,-0.105 z m -1.75,-0.63 q -0.07,0 -0.07,0.105 0,0.105 0.07,0.105 0.07,0 0.07,-0.105 0,-0.105 -0.07,-0.105 z m 0,-0.455 q -0.07,0 -0.07,0.14 0,0.105 0.07,0.105 0.07,0 0.07,-0.105 0,-0.14 -0.07,-0.14 z m 0.14,-0.63 q -0.07,0 -0.07,0.105 0,0.105 0.07,0.105 0.07,-0.035 0.07,-0.105 0,-0.105 -0.07,-0.105 z m 0.385,-0.35 q -0.07,-0.035 -0.07,0.105 0.035,0.105 0.105,0.105 0.07,0.035 0.035,-0.07 0,-0.14 -0.07,-0.14 z m 2.205,-1.015 q -0.105,0 -0.105,0.14 0.035,0.105 0.14,0.105 0.07,0 0.035,-0.105 0,-0.14 -0.07,-0.14 z m -0.84,-0.63 q -0.07,0 -0.105,0.105 0,0.105 0.07,0.105 0.07,0.035 0.07,-0.07 0.035,-0.105 -0.035,-0.14 z m -0.91,-0.63 q -0.07,0 -0.07,0.105 0,0.105 0.07,0.105 0.07,0 0.07,-0.105 0,-0.105 -0.07,-0.105 z m 1.75,-0.035 q -0.105,0 -0.105,0.105 0,0.105 0.105,0.105 0.07,0 0.07,-0.105 0,-0.105 -0.07,-0.105 z m -3.08,-0.63 q -0.07,0 -0.07,0.105 0,0.105 0.07,0.105 0.07,0 0.07,-0.105 0,-0.105 -0.07,-0.105 z m 2.8,-0.035 q -0.07,0 -0.07,0.105 0.035,0.105 0.105,0.105 0.07,0 0.035,-0.105 0,-0.105 -0.07,-0.105 z m -3.71,-1.26 q -0.07,0 -0.07,0.105 0,0.105 0.07,0.105 0.105,0 0.105,-0.105 0,-0.105 -0.105,-0.105 z m -9.59,14.315 q -0.105,0 -0.105,0.14 0,0.105 0.105,0.105 0.07,0 0.07,-0.105 0,-0.14 -0.07,-0.14 z m 2.87,-8.4 q 0,-0.07 -0.14,-0.07 -0.105,-0.035 -0.105,0.035 0,0.07 0.105,0.105 0.14,0 0.14,-0.07 z m -3.325,8.295 q -0.07,0 -0.07,0.14 0,0.105 0.07,0.105 0.07,0 0.07,-0.105 0,-0.14 -0.07,-0.14 z m 3.955,-8.68 q -0.07,0 -0.07,0.14 0,0.105 0.07,0.105 0.07,0 0.07,-0.105 0,-0.14 -0.07,-0.14 z m -0.455,-0.175 q -0.07,0 -0.07,0.105 0.035,0.105 0.105,0.105 0.07,-0.035 0.035,-0.14 0,-0.105 -0.07,-0.07 z m -3.92,8.435 q -0.105,0 -0.105,0.105 0,0.105 0.105,0.105 0.07,-0.035 0.07,-0.14 0,-0.105 -0.07,-0.07 z m 3.71,-8.645 q -0.07,-0.035 -0.07,0.07 0,0.105 0.07,0.14 0.07,0 0.07,-0.105 0,-0.105 -0.07,-0.105 z m -2.835,8.435 q -0.105,0 -0.105,0.105 0,0.105 0.105,0.105 0.07,0 0.07,-0.105 0,-0.105 -0.07,-0.105 z m 3.745,-8.68 q -0.105,0 -0.14,0.105 0,0.105 0.105,0.105 0.07,0 0.07,-0.105 0.035,-0.105 -0.035,-0.105 z m -5.075,8.435 q -0.07,0 -0.07,0.14 0,0.105 0.07,0.105 0.07,0 0.07,-0.105 0,-0.14 -0.07,-0.14 z m 4.41,-8.68 q -0.07,0.035 -0.07,0.175 0,0.105 0.07,0.07 0.07,0 0.07,-0.105 0,-0.14 -0.07,-0.14 z m -4.62,8.26 q -0.07,0 -0.07,0.105 0,0.105 0.07,0.105 0.07,0 0.07,-0.105 0,-0.105 -0.07,-0.105 z m 4.375,-8.54 0.21,0 0,-0.21 -0.21,0 0,0.21 z m 0.91,-0.7 q -0.21,0.105 -0.245,0.21 -0.035,0.07 -0.035,0.14 l 0,0.105 0.28,-0.455 0,0 z m -1.33,0 q -0.07,0 -0.105,0.14 0,0.105 0.07,0.105 0.07,0 0.07,-0.105 0.035,-0.14 -0.035,-0.14 z m -2.38,-0.07 q -0.07,0 -0.105,0.14 0,0.105 0.07,0.105 0.07,0 0.07,-0.105 0.035,-0.14 -0.035,-0.14 z m 0.875,0 q -0.105,0 -0.14,0.14 0,0.105 0.105,0.105 0.07,0 0.07,-0.105 0.035,-0.14 -0.035,-0.14 z m -1.785,-0.21 q -0.07,0 -0.07,0.105 0.035,0.105 0.105,0.105 0.07,0 0.035,-0.105 0,-0.105 -0.07,-0.105 z m 0.63,0 q -0.07,0 -0.07,0.105 0.035,0.105 0.105,0.105 0.105,0 0.07,-0.105 0,-0.105 -0.105,-0.105 z m 3.29,-0.035 q -0.07,0.035 -0.07,0.14 0.035,0.105 0.105,0.07 0.07,0 0.035,-0.105 0,-0.105 -0.07,-0.105 z m -1.96,-0.21 q -0.07,0.035 -0.07,0.14 0,0.105 0.07,0.07 0.07,0 0.07,-0.105 0,-0.105 -0.07,-0.105 z m 0.665,-0.07 q -0.105,0 -0.105,0.105 0,0.105 0.105,0.105 0.07,0 0.07,-0.105 0,-0.105 -0.07,-0.105 z m 0.63,0.175 q 0,-0.07 -0.105,-0.07 -0.105,0 -0.105,0.07 0,0.07 0.105,0.07 0.105,0 0.105,-0.07 z m -2.38,-0.28 q -0.07,0 -0.07,0.105 0,0.105 0.07,0.105 0.07,0 0.07,-0.105 0,-0.105 -0.07,-0.105 z m 2.835,0 q -0.07,-0.035 -0.07,0.07 0,0.105 0.07,0.14 0.07,0 0.07,-0.105 0,-0.105 -0.07,-0.105 z m -1.75,-0.175 q 0.07,-0.07 -0.245,-0.035 -0.28,0 -0.21,0.07 0.07,0.105 0.21,0.105 0.175,0 0.245,-0.14 z m 1.295,0 0.42,-0.385 -0.455,-0.035 0.035,0.42 z m -3.255,-0.175 0.21,-0.63 -0.42,0.455 0.21,0.175 z m 0.84,-0.105 q -0.07,0 -0.07,0.105 0.035,0.105 0.105,0.105 0.07,0 0.035,-0.105 0,-0.105 -0.07,-0.105 z m 0.14,-0.315 q 0.315,0 0.315,0.42 l 0,-0.875 q -0.175,0 -0.28,0 -0.07,-0.035 -0.175,-0.21 l -0.42,0.875 q 0.175,-0.07 0.28,-0.14 0.105,-0.07 0.28,-0.07 z m -1.645,0.105 q -0.07,0 -0.105,0.105 0,0.105 0.07,0.105 0.07,0 0.07,-0.105 0.035,-0.105 -0.035,-0.105 z m 3.045,-0.105 q 0,0.21 0.245,0.21 0.21,0 0.21,-0.21 0,-0.07 -0.07,-0.245 -0.07,-0.21 -0.14,-0.21 -0.105,0 -0.175,0.21 -0.07,0.175 -0.07,0.245 z m -0.21,-1.365 q -0.28,0.385 -0.385,0.595 -0.07,0.21 -0.035,0.56 l 0,0.21 q 0.315,-0.175 0.385,-0.525 0.105,-0.35 0.455,-0.56 l -0.42,-0.28 0,0 z m -2.17,0.91 q 0.245,0 0.315,-0.105 0.07,-0.14 0.07,-0.315 l 0,-0.21 -0.385,0.63 z m -0.49,-0.315 q -0.07,0 -0.07,0.105 0.035,0.105 0.105,0.105 0.07,0.035 0.035,-0.07 0,-0.105 -0.07,-0.14 z m 1.96,-0.21 q -0.07,0 -0.07,0.105 0,0.105 0.07,0.105 0.07,0 0.07,-0.105 0,-0.105 -0.07,-0.105 z m 1.54,-0.035 q -0.07,0 -0.07,0.105 0,0.105 0.07,0.105 0.07,0 0.07,-0.105 0,-0.105 -0.07,-0.105 z m -3.465,-0.175 q -0.07,0 -0.105,0.105 0,0.105 0.07,0.105 0.07,0.035 0.07,-0.07 0.035,-0.105 -0.035,-0.14 z m 0.455,0 q -0.07,0 -0.105,0.14 0,0.105 0.07,0.07 0.07,0 0.07,-0.105 0.035,-0.105 -0.035,-0.105 z m 0.875,-0.035 q -0.07,0.035 -0.105,0.14 0,0.105 0.07,0.105 0.07,0 0.07,-0.105 0.035,-0.105 -0.035,-0.14 z m 0.735,-0.315 q -0.07,0 -0.175,0.035 -0.07,0 -0.14,0.175 l 0.105,0 q 0.07,0 0.14,0 0.105,-0.035 0.21,-0.21 l -0.14,0 0,0 z" />
  </g>
</svg>
